<?xml version="1.0" encoding="utf-8" standalone="no"?>
<!DOCTYPE svg PUBLIC "-//W3C//DTD SVG 1.1//EN"
  "http://www.w3.org/Graphics/SVG/1.1/DTD/svg11.dtd">
<svg xmlns:xlink="http://www.w3.org/1999/xlink" width="375.02pt" height="312.30825pt" viewBox="0 0 375.02 312.30825" xmlns="http://www.w3.org/2000/svg" version="1.1">
 <metadata>
  <rdf:RDF xmlns:dc="http://purl.org/dc/elements/1.1/" xmlns:cc="http://creativecommons.org/ns#" xmlns:rdf="http://www.w3.org/1999/02/22-rdf-syntax-ns#">
   <cc:Work>
    <dc:type rdf:resource="http://purl.org/dc/dcmitype/StillImage"/>
    <dc:date>2022-03-19T13:28:06.840854</dc:date>
    <dc:format>image/svg+xml</dc:format>
    <dc:creator>
     <cc:Agent>
      <dc:title>Matplotlib v3.5.1, https://matplotlib.org/</dc:title>
     </cc:Agent>
    </dc:creator>
   </cc:Work>
  </rdf:RDF>
 </metadata>
 <defs>
  <style type="text/css">*{stroke-linejoin: round; stroke-linecap: butt}</style>
 </defs>
 <g id="figure_1">
  <g id="patch_1">
   <path d="M 0 312.30825 
L 375.02 312.30825 
L 375.02 0 
L 0 0 
L 0 312.30825 
z
" style="fill: none"/>
  </g>
  <g id="axes_1">
   <g id="patch_2">
    <path d="M 10.7 288.430125 
L 367.82 288.430125 
L 367.82 22.318125 
L 10.7 22.318125 
L 10.7 288.430125 
z
" style="fill: none"/>
   </g>
   <g id="PolyCollection_1">
    <defs>
     <path id="mccd07e6f19" d="M 26.932727 -23.878263 
L 26.932727 -23.878125 
L 28.564157 -23.878125 
L 30.195587 -23.878125 
L 31.827017 -23.878125 
L 33.458447 -23.878125 
L 35.089877 -23.878125 
L 36.721307 -23.878125 
L 38.352736 -23.878125 
L 39.984166 -23.878125 
L 41.615596 -23.878125 
L 43.247026 -23.878125 
L 44.878456 -23.878125 
L 46.509886 -23.878125 
L 48.141316 -23.878125 
L 49.772746 -23.878125 
L 51.404175 -23.878125 
L 53.035605 -23.878125 
L 54.667035 -23.878125 
L 56.298465 -23.878125 
L 57.929895 -23.878125 
L 59.561325 -23.878125 
L 61.192755 -23.878125 
L 62.824185 -23.878125 
L 64.455614 -23.878125 
L 66.087044 -23.878125 
L 67.718474 -23.878125 
L 69.349904 -23.878125 
L 70.981334 -23.878125 
L 72.612764 -23.878125 
L 74.244194 -23.878125 
L 75.875624 -23.878125 
L 77.507053 -23.878125 
L 79.138483 -23.878125 
L 80.769913 -23.878125 
L 82.401343 -23.878125 
L 84.032773 -23.878125 
L 85.664203 -23.878125 
L 87.295633 -23.878125 
L 88.927063 -23.878125 
L 90.558492 -23.878125 
L 92.189922 -23.878125 
L 93.821352 -23.878125 
L 95.452782 -23.878125 
L 97.084212 -23.878125 
L 98.715642 -23.878125 
L 100.347072 -23.878125 
L 101.978502 -23.878125 
L 103.609931 -23.878125 
L 105.241361 -23.878125 
L 106.872791 -23.878125 
L 108.504221 -23.878125 
L 110.135651 -23.878125 
L 111.767081 -23.878125 
L 113.398511 -23.878125 
L 115.029941 -23.878125 
L 116.66137 -23.878125 
L 118.2928 -23.878125 
L 119.92423 -23.878125 
L 121.55566 -23.878125 
L 123.18709 -23.878125 
L 124.81852 -23.878125 
L 126.44995 -23.878125 
L 128.08138 -23.878125 
L 129.71281 -23.878125 
L 131.344239 -23.878125 
L 132.975669 -23.878125 
L 134.607099 -23.878125 
L 136.238529 -23.878125 
L 137.869959 -23.878125 
L 139.501389 -23.878125 
L 141.132819 -23.878125 
L 142.764249 -23.878125 
L 144.395678 -23.878125 
L 146.027108 -23.878125 
L 147.658538 -23.878125 
L 149.289968 -23.878125 
L 150.921398 -23.878125 
L 152.552828 -23.878125 
L 154.184258 -23.878125 
L 155.815688 -23.878125 
L 157.447117 -23.878125 
L 159.078547 -23.878125 
L 160.709977 -23.878125 
L 162.341407 -23.878125 
L 163.972837 -23.878125 
L 165.604267 -23.878125 
L 167.235697 -23.878125 
L 168.867127 -23.878125 
L 170.498556 -23.878125 
L 172.129986 -23.878125 
L 173.761416 -23.878125 
L 175.392846 -23.878125 
L 177.024276 -23.878125 
L 178.655706 -23.878125 
L 180.287136 -23.878125 
L 181.918566 -23.878125 
L 183.549995 -23.878125 
L 185.181425 -23.878125 
L 186.812855 -23.878125 
L 188.444285 -23.878125 
L 190.075715 -23.878125 
L 191.707145 -23.878125 
L 193.338575 -23.878125 
L 194.970005 -23.878125 
L 196.601434 -23.878125 
L 198.232864 -23.878125 
L 199.864294 -23.878125 
L 201.495724 -23.878125 
L 203.127154 -23.878125 
L 204.758584 -23.878125 
L 206.390014 -23.878125 
L 208.021444 -23.878125 
L 209.652873 -23.878125 
L 211.284303 -23.878125 
L 212.915733 -23.878125 
L 214.547163 -23.878125 
L 216.178593 -23.878125 
L 217.810023 -23.878125 
L 219.441453 -23.878125 
L 221.072883 -23.878125 
L 222.704312 -23.878125 
L 224.335742 -23.878125 
L 225.967172 -23.878125 
L 227.598602 -23.878125 
L 229.230032 -23.878125 
L 230.861462 -23.878125 
L 232.492892 -23.878125 
L 234.124322 -23.878125 
L 235.755751 -23.878125 
L 237.387181 -23.878125 
L 239.018611 -23.878125 
L 240.650041 -23.878125 
L 242.281471 -23.878125 
L 243.912901 -23.878125 
L 245.544331 -23.878125 
L 247.175761 -23.878125 
L 248.80719 -23.878125 
L 250.43862 -23.878125 
L 252.07005 -23.878125 
L 253.70148 -23.878125 
L 255.33291 -23.878125 
L 256.96434 -23.878125 
L 258.59577 -23.878125 
L 260.2272 -23.878125 
L 261.85863 -23.878125 
L 263.490059 -23.878125 
L 265.121489 -23.878125 
L 266.752919 -23.878125 
L 268.384349 -23.878125 
L 270.015779 -23.878125 
L 271.647209 -23.878125 
L 273.278639 -23.878125 
L 274.910069 -23.878125 
L 276.541498 -23.878125 
L 278.172928 -23.878125 
L 279.804358 -23.878125 
L 281.435788 -23.878125 
L 283.067218 -23.878125 
L 284.698648 -23.878125 
L 286.330078 -23.878125 
L 287.961508 -23.878125 
L 289.592937 -23.878125 
L 291.224367 -23.878125 
L 292.855797 -23.878125 
L 294.487227 -23.878125 
L 296.118657 -23.878125 
L 297.750087 -23.878125 
L 299.381517 -23.878125 
L 301.012947 -23.878125 
L 302.644376 -23.878125 
L 304.275806 -23.878125 
L 305.907236 -23.878125 
L 307.538666 -23.878125 
L 309.170096 -23.878125 
L 310.801526 -23.878125 
L 312.432956 -23.878125 
L 314.064386 -23.878125 
L 315.695815 -23.878125 
L 317.327245 -23.878125 
L 318.958675 -23.878125 
L 320.590105 -23.878125 
L 322.221535 -23.878125 
L 323.852965 -23.878125 
L 325.484395 -23.878125 
L 327.115825 -23.878125 
L 328.747254 -23.878125 
L 330.378684 -23.878125 
L 332.010114 -23.878125 
L 333.641544 -23.878125 
L 335.272974 -23.878125 
L 336.904404 -23.878125 
L 338.535834 -23.878125 
L 340.167264 -23.878125 
L 341.798693 -23.878125 
L 343.430123 -23.878125 
L 345.061553 -23.878125 
L 346.692983 -23.878125 
L 348.324413 -23.878125 
L 349.955843 -23.878125 
L 351.587273 -23.878125 
L 351.587273 -23.878215 
L 351.587273 -23.878215 
L 349.955843 -23.878741 
L 348.324413 -23.880605 
L 346.692983 -23.883963 
L 345.061553 -23.886172 
L 343.430123 -23.884709 
L 341.798693 -23.882031 
L 340.167264 -23.883089 
L 338.535834 -23.890755 
L 336.904404 -23.902776 
L 335.272974 -23.912118 
L 333.641544 -23.916311 
L 332.010114 -23.919683 
L 330.378684 -23.922966 
L 328.747254 -23.92812 
L 327.115825 -23.943819 
L 325.484395 -23.96721 
L 323.852965 -23.987028 
L 322.221535 -24.007603 
L 320.590105 -24.038684 
L 318.958675 -24.073555 
L 317.327245 -24.098803 
L 315.695815 -24.1222 
L 314.064386 -24.17355 
L 312.432956 -24.263115 
L 310.801526 -24.361839 
L 309.170096 -24.441765 
L 307.538666 -24.510566 
L 305.907236 -24.595523 
L 304.275806 -24.72511 
L 302.644376 -24.931247 
L 301.012947 -25.219832 
L 299.381517 -25.531446 
L 297.750087 -25.764895 
L 296.118657 -25.893803 
L 294.487227 -26.018873 
L 292.855797 -26.255273 
L 291.224367 -26.656487 
L 289.592937 -27.196311 
L 287.961508 -27.772322 
L 286.330078 -28.32186 
L 284.698648 -28.846227 
L 283.067218 -29.356464 
L 281.435788 -29.935513 
L 279.804358 -30.679363 
L 278.172928 -31.606486 
L 276.541498 -32.686017 
L 274.910069 -33.856828 
L 273.278639 -35.079175 
L 271.647209 -36.391917 
L 270.015779 -37.956221 
L 268.384349 -39.908562 
L 266.752919 -42.093535 
L 265.121489 -44.222035 
L 263.490059 -46.252724 
L 261.85863 -48.423289 
L 260.2272 -50.849541 
L 258.59577 -53.40229 
L 256.96434 -56.153676 
L 255.33291 -59.279964 
L 253.70148 -62.540157 
L 252.07005 -65.766578 
L 250.43862 -69.335647 
L 248.80719 -73.467108 
L 247.175761 -77.949028 
L 245.544331 -82.596858 
L 243.912901 -87.342288 
L 242.281471 -92.242908 
L 240.650041 -97.51973 
L 239.018611 -103.181679 
L 237.387181 -109.012188 
L 235.755751 -114.979624 
L 234.124322 -121.238471 
L 232.492892 -127.854764 
L 230.861462 -134.550213 
L 229.230032 -140.982288 
L 227.598602 -147.211275 
L 225.967172 -153.519633 
L 224.335742 -160.089792 
L 222.704312 -167.005917 
L 221.072883 -174.100575 
L 219.441453 -181.153916 
L 217.810023 -188.503282 
L 216.178593 -196.420128 
L 214.547163 -204.263306 
L 212.915733 -211.36205 
L 211.284303 -217.788199 
L 209.652873 -223.884832 
L 208.021444 -229.817984 
L 206.390014 -235.716983 
L 204.758584 -241.534151 
L 203.127154 -246.85223 
L 201.495724 -251.893454 
L 199.864294 -257.263659 
L 198.232864 -262.409927 
L 196.601434 -266.229471 
L 194.970005 -268.672698 
L 193.338575 -270.360973 
L 191.707145 -271.903746 
L 190.075715 -273.963756 
L 188.444285 -276.198823 
L 186.812855 -277.318125 
L 185.181425 -277.207299 
L 183.549995 -276.836959 
L 181.918566 -276.484675 
L 180.287136 -275.715933 
L 178.655706 -274.158377 
L 177.024276 -271.715368 
L 175.392846 -268.410859 
L 173.761416 -264.496235 
L 172.129986 -260.480851 
L 170.498556 -256.787905 
L 168.867127 -253.26175 
L 167.235697 -248.95195 
L 165.604267 -243.369085 
L 163.972837 -236.997717 
L 162.341407 -230.261464 
L 160.709977 -223.424819 
L 159.078547 -216.892391 
L 157.447117 -210.660246 
L 155.815688 -204.059781 
L 154.184258 -196.841298 
L 152.552828 -189.623153 
L 150.921398 -182.694699 
L 149.289968 -175.618971 
L 147.658538 -168.417891 
L 146.027108 -161.691889 
L 144.395678 -155.389026 
L 142.764249 -148.865889 
L 141.132819 -141.801055 
L 139.501389 -134.401334 
L 137.869959 -127.238958 
L 136.238529 -120.750791 
L 134.607099 -114.728308 
L 132.975669 -108.893421 
L 131.344239 -103.333709 
L 129.71281 -98.037396 
L 128.08138 -92.71512 
L 126.44995 -87.367135 
L 124.81852 -82.491004 
L 123.18709 -78.275505 
L 121.55566 -74.270232 
L 119.92423 -70.148053 
L 118.2928 -66.17317 
L 116.66137 -62.68192 
L 115.029941 -59.553008 
L 113.398511 -56.4394 
L 111.767081 -53.298843 
L 110.135651 -50.414068 
L 108.504221 -47.922176 
L 106.872791 -45.650906 
L 105.241361 -43.516742 
L 103.609931 -41.609827 
L 101.978502 -39.929178 
L 100.347072 -38.347111 
L 98.715642 -36.772974 
L 97.084212 -35.302978 
L 95.452782 -34.065559 
L 93.821352 -33.030923 
L 92.189922 -32.101493 
L 90.558492 -31.208272 
L 88.927063 -30.310132 
L 87.295633 -29.412209 
L 85.664203 -28.605923 
L 84.032773 -28.006275 
L 82.401343 -27.592501 
L 80.769913 -27.238207 
L 79.138483 -26.892935 
L 77.507053 -26.560491 
L 75.875624 -26.195264 
L 74.244194 -25.816785 
L 72.612764 -25.535043 
L 70.981334 -25.370616 
L 69.349904 -25.23994 
L 67.718474 -25.082934 
L 66.087044 -24.900941 
L 64.455614 -24.717358 
L 62.824185 -24.566031 
L 61.192755 -24.469438 
L 59.561325 -24.403209 
L 57.929895 -24.333393 
L 56.298465 -24.267528 
L 54.667035 -24.222601 
L 53.035605 -24.173203 
L 51.404175 -24.105531 
L 49.772746 -24.053175 
L 48.141316 -24.025848 
L 46.509886 -23.997958 
L 44.878456 -23.960386 
L 43.247026 -23.927162 
L 41.615596 -23.909893 
L 39.984166 -23.908004 
L 38.352736 -23.913867 
L 36.721307 -23.919887 
L 35.089877 -23.920213 
L 33.458447 -23.91027 
L 31.827017 -23.894726 
L 30.195587 -23.883579 
L 28.564157 -23.879235 
L 26.932727 -23.878263 
z
" style="stroke: #fde725"/>
    </defs>
    <g clip-path="url(#p348f5ff85e)">
     <use xlink:href="#mccd07e6f19" x="0" y="312.30825" style="fill: #fde725; fill-opacity: 0.25; stroke: #fde725"/>
    </g>
   </g>
   <g id="matplotlib.axis_1">
    <g id="xtick_1">
     <g id="line2d_1">
      <defs>
       <path id="mda304e510f" d="M 0 0 
L 0 3.5 
" style="stroke: #666666; stroke-opacity: 0.015686; stroke-width: 0.8"/>
      </defs>
      <g>
       <use xlink:href="#mda304e510f" x="35.209695" y="288.430125" style="fill: #666666; fill-opacity: 0.015686; stroke: #666666; stroke-opacity: 0.015686; stroke-width: 0.8"/>
      </g>
     </g>
     <g id="text_1">
      <!-- −3 -->
      <g style="fill: #666666" transform="translate(27.838601 303.028562)scale(0.1 -0.1)">
       <defs>
        <path id="DejaVuSans-2212" d="M 678 2272 
L 4684 2272 
L 4684 1741 
L 678 1741 
L 678 2272 
z
" transform="scale(0.015625)"/>
        <path id="DejaVuSans-33" d="M 2597 2516 
Q 3050 2419 3304 2112 
Q 3559 1806 3559 1356 
Q 3559 666 3084 287 
Q 2609 -91 1734 -91 
Q 1441 -91 1130 -33 
Q 819 25 488 141 
L 488 750 
Q 750 597 1062 519 
Q 1375 441 1716 441 
Q 2309 441 2620 675 
Q 2931 909 2931 1356 
Q 2931 1769 2642 2001 
Q 2353 2234 1838 2234 
L 1294 2234 
L 1294 2753 
L 1863 2753 
Q 2328 2753 2575 2939 
Q 2822 3125 2822 3475 
Q 2822 3834 2567 4026 
Q 2313 4219 1838 4219 
Q 1578 4219 1281 4162 
Q 984 4106 628 3988 
L 628 4550 
Q 988 4650 1302 4700 
Q 1616 4750 1894 4750 
Q 2613 4750 3031 4423 
Q 3450 4097 3450 3541 
Q 3450 3153 3228 2886 
Q 3006 2619 2597 2516 
z
" transform="scale(0.015625)"/>
       </defs>
       <use xlink:href="#DejaVuSans-2212"/>
       <use xlink:href="#DejaVuSans-33" x="83.789062"/>
      </g>
     </g>
    </g>
    <g id="xtick_2">
     <g id="line2d_2">
      <g>
       <use xlink:href="#mda304e510f" x="85.198973" y="288.430125" style="fill: #666666; fill-opacity: 0.015686; stroke: #666666; stroke-opacity: 0.015686; stroke-width: 0.8"/>
      </g>
     </g>
     <g id="text_2">
      <!-- −2 -->
      <g style="fill: #666666" transform="translate(77.82788 303.028562)scale(0.1 -0.1)">
       <defs>
        <path id="DejaVuSans-32" d="M 1228 531 
L 3431 531 
L 3431 0 
L 469 0 
L 469 531 
Q 828 903 1448 1529 
Q 2069 2156 2228 2338 
Q 2531 2678 2651 2914 
Q 2772 3150 2772 3378 
Q 2772 3750 2511 3984 
Q 2250 4219 1831 4219 
Q 1534 4219 1204 4116 
Q 875 4013 500 3803 
L 500 4441 
Q 881 4594 1212 4672 
Q 1544 4750 1819 4750 
Q 2544 4750 2975 4387 
Q 3406 4025 3406 3419 
Q 3406 3131 3298 2873 
Q 3191 2616 2906 2266 
Q 2828 2175 2409 1742 
Q 1991 1309 1228 531 
z
" transform="scale(0.015625)"/>
       </defs>
       <use xlink:href="#DejaVuSans-2212"/>
       <use xlink:href="#DejaVuSans-32" x="83.789062"/>
      </g>
     </g>
    </g>
    <g id="xtick_3">
     <g id="line2d_3">
      <g>
       <use xlink:href="#mda304e510f" x="135.188251" y="288.430125" style="fill: #666666; fill-opacity: 0.015686; stroke: #666666; stroke-opacity: 0.015686; stroke-width: 0.8"/>
      </g>
     </g>
     <g id="text_3">
      <!-- −1 -->
      <g style="fill: #666666" transform="translate(127.817158 303.028562)scale(0.1 -0.1)">
       <defs>
        <path id="DejaVuSans-31" d="M 794 531 
L 1825 531 
L 1825 4091 
L 703 3866 
L 703 4441 
L 1819 4666 
L 2450 4666 
L 2450 531 
L 3481 531 
L 3481 0 
L 794 0 
L 794 531 
z
" transform="scale(0.015625)"/>
       </defs>
       <use xlink:href="#DejaVuSans-2212"/>
       <use xlink:href="#DejaVuSans-31" x="83.789062"/>
      </g>
     </g>
    </g>
    <g id="xtick_4">
     <g id="line2d_4">
      <g>
       <use xlink:href="#mda304e510f" x="185.177529" y="288.430125" style="fill: #666666; fill-opacity: 0.015686; stroke: #666666; stroke-opacity: 0.015686; stroke-width: 0.8"/>
      </g>
     </g>
     <g id="text_4">
      <!-- 0 -->
      <g style="fill: #666666" transform="translate(181.996279 303.028562)scale(0.1 -0.1)">
       <defs>
        <path id="DejaVuSans-30" d="M 2034 4250 
Q 1547 4250 1301 3770 
Q 1056 3291 1056 2328 
Q 1056 1369 1301 889 
Q 1547 409 2034 409 
Q 2525 409 2770 889 
Q 3016 1369 3016 2328 
Q 3016 3291 2770 3770 
Q 2525 4250 2034 4250 
z
M 2034 4750 
Q 2819 4750 3233 4129 
Q 3647 3509 3647 2328 
Q 3647 1150 3233 529 
Q 2819 -91 2034 -91 
Q 1250 -91 836 529 
Q 422 1150 422 2328 
Q 422 3509 836 4129 
Q 1250 4750 2034 4750 
z
" transform="scale(0.015625)"/>
       </defs>
       <use xlink:href="#DejaVuSans-30"/>
      </g>
     </g>
    </g>
    <g id="xtick_5">
     <g id="line2d_5">
      <g>
       <use xlink:href="#mda304e510f" x="235.166808" y="288.430125" style="fill: #666666; fill-opacity: 0.015686; stroke: #666666; stroke-opacity: 0.015686; stroke-width: 0.8"/>
      </g>
     </g>
     <g id="text_5">
      <!-- 1 -->
      <g style="fill: #666666" transform="translate(231.985558 303.028562)scale(0.1 -0.1)">
       <use xlink:href="#DejaVuSans-31"/>
      </g>
     </g>
    </g>
    <g id="xtick_6">
     <g id="line2d_6">
      <g>
       <use xlink:href="#mda304e510f" x="285.156086" y="288.430125" style="fill: #666666; fill-opacity: 0.015686; stroke: #666666; stroke-opacity: 0.015686; stroke-width: 0.8"/>
      </g>
     </g>
     <g id="text_6">
      <!-- 2 -->
      <g style="fill: #666666" transform="translate(281.974836 303.028562)scale(0.1 -0.1)">
       <use xlink:href="#DejaVuSans-32"/>
      </g>
     </g>
    </g>
    <g id="xtick_7">
     <g id="line2d_7">
      <g>
       <use xlink:href="#mda304e510f" x="335.145364" y="288.430125" style="fill: #666666; fill-opacity: 0.015686; stroke: #666666; stroke-opacity: 0.015686; stroke-width: 0.8"/>
      </g>
     </g>
     <g id="text_7">
      <!-- 3 -->
      <g style="fill: #666666" transform="translate(331.964114 303.028562)scale(0.1 -0.1)">
       <use xlink:href="#DejaVuSans-33"/>
      </g>
     </g>
    </g>
   </g>
   <g id="matplotlib.axis_2"/>
   <g id="patch_3">
    <path d="M 10.7 288.430125 
L 10.7 22.318125 
" style="fill: none"/>
   </g>
   <g id="patch_4">
    <path d="M 367.82 288.430125 
L 367.82 22.318125 
" style="fill: none"/>
   </g>
   <g id="patch_5">
    <path d="M 10.7 288.430125 
L 367.82 288.430125 
" style="fill: none"/>
   </g>
   <g id="patch_6">
    <path d="M 10.7 22.318125 
L 367.82 22.318125 
" style="fill: none"/>
   </g>
   <g id="text_8">
    <!-- $N = $1000000 -->
    <g style="fill: #666666" transform="translate(150.68 16.318125)scale(0.12 -0.12)">
     <defs>
      <path id="DejaVuSans-Oblique-4e" d="M 1081 4666 
L 1931 4666 
L 3219 666 
L 4000 4666 
L 4616 4666 
L 3706 0 
L 2853 0 
L 1569 4025 
L 788 0 
L 172 0 
L 1081 4666 
z
" transform="scale(0.015625)"/>
      <path id="DejaVuSans-3d" d="M 678 2906 
L 4684 2906 
L 4684 2381 
L 678 2381 
L 678 2906 
z
M 678 1631 
L 4684 1631 
L 4684 1100 
L 678 1100 
L 678 1631 
z
" transform="scale(0.015625)"/>
     </defs>
     <use xlink:href="#DejaVuSans-Oblique-4e" transform="translate(0 0.78125)"/>
     <use xlink:href="#DejaVuSans-3d" transform="translate(94.287109 0.78125)"/>
     <use xlink:href="#DejaVuSans-31" transform="translate(197.558594 0.78125)"/>
     <use xlink:href="#DejaVuSans-30" transform="translate(261.181641 0.78125)"/>
     <use xlink:href="#DejaVuSans-30" transform="translate(324.804688 0.78125)"/>
     <use xlink:href="#DejaVuSans-30" transform="translate(388.427734 0.78125)"/>
     <use xlink:href="#DejaVuSans-30" transform="translate(452.050781 0.78125)"/>
     <use xlink:href="#DejaVuSans-30" transform="translate(515.673828 0.78125)"/>
     <use xlink:href="#DejaVuSans-30" transform="translate(579.296875 0.78125)"/>
    </g>
   </g>
  </g>
 </g>
 <defs>
  <clipPath id="p348f5ff85e">
   <rect x="10.7" y="22.318125" width="357.12" height="266.112"/>
  </clipPath>
 </defs>
</svg>
