<?xml version="1.0" encoding="utf-8" standalone="no"?>
<!DOCTYPE svg PUBLIC "-//W3C//DTD SVG 1.1//EN"
  "http://www.w3.org/Graphics/SVG/1.1/DTD/svg11.dtd">
<svg xmlns:xlink="http://www.w3.org/1999/xlink" width="376.22943pt" height="312.30825pt" viewBox="0 0 376.22943 312.30825" xmlns="http://www.w3.org/2000/svg" version="1.1">
 <metadata>
  <rdf:RDF xmlns:dc="http://purl.org/dc/elements/1.1/" xmlns:cc="http://creativecommons.org/ns#" xmlns:rdf="http://www.w3.org/1999/02/22-rdf-syntax-ns#">
   <cc:Work>
    <dc:type rdf:resource="http://purl.org/dc/dcmitype/StillImage"/>
    <dc:date>2022-03-19T13:27:57.615578</dc:date>
    <dc:format>image/svg+xml</dc:format>
    <dc:creator>
     <cc:Agent>
      <dc:title>Matplotlib v3.5.1, https://matplotlib.org/</dc:title>
     </cc:Agent>
    </dc:creator>
   </cc:Work>
  </rdf:RDF>
 </metadata>
 <defs>
  <style type="text/css">*{stroke-linejoin: round; stroke-linecap: butt}</style>
 </defs>
 <g id="figure_1">
  <g id="patch_1">
   <path d="M 0 312.30825 
L 376.22943 312.30825 
L 376.22943 0 
L 0 0 
L 0 312.30825 
z
" style="fill: none"/>
  </g>
  <g id="axes_1">
   <g id="patch_2">
    <path d="M 10.7 288.430125 
L 367.82 288.430125 
L 367.82 22.318125 
L 10.7 22.318125 
L 10.7 288.430125 
z
" style="fill: none"/>
   </g>
   <g id="PolyCollection_1">
    <defs>
     <path id="m9937cf60f3" d="M 26.932727 -23.891978 
L 26.932727 -23.878125 
L 28.564157 -23.878125 
L 30.195587 -23.878125 
L 31.827017 -23.878125 
L 33.458447 -23.878125 
L 35.089877 -23.878125 
L 36.721307 -23.878125 
L 38.352736 -23.878125 
L 39.984166 -23.878125 
L 41.615596 -23.878125 
L 43.247026 -23.878125 
L 44.878456 -23.878125 
L 46.509886 -23.878125 
L 48.141316 -23.878125 
L 49.772746 -23.878125 
L 51.404175 -23.878125 
L 53.035605 -23.878125 
L 54.667035 -23.878125 
L 56.298465 -23.878125 
L 57.929895 -23.878125 
L 59.561325 -23.878125 
L 61.192755 -23.878125 
L 62.824185 -23.878125 
L 64.455614 -23.878125 
L 66.087044 -23.878125 
L 67.718474 -23.878125 
L 69.349904 -23.878125 
L 70.981334 -23.878125 
L 72.612764 -23.878125 
L 74.244194 -23.878125 
L 75.875624 -23.878125 
L 77.507053 -23.878125 
L 79.138483 -23.878125 
L 80.769913 -23.878125 
L 82.401343 -23.878125 
L 84.032773 -23.878125 
L 85.664203 -23.878125 
L 87.295633 -23.878125 
L 88.927063 -23.878125 
L 90.558492 -23.878125 
L 92.189922 -23.878125 
L 93.821352 -23.878125 
L 95.452782 -23.878125 
L 97.084212 -23.878125 
L 98.715642 -23.878125 
L 100.347072 -23.878125 
L 101.978502 -23.878125 
L 103.609931 -23.878125 
L 105.241361 -23.878125 
L 106.872791 -23.878125 
L 108.504221 -23.878125 
L 110.135651 -23.878125 
L 111.767081 -23.878125 
L 113.398511 -23.878125 
L 115.029941 -23.878125 
L 116.66137 -23.878125 
L 118.2928 -23.878125 
L 119.92423 -23.878125 
L 121.55566 -23.878125 
L 123.18709 -23.878125 
L 124.81852 -23.878125 
L 126.44995 -23.878125 
L 128.08138 -23.878125 
L 129.71281 -23.878125 
L 131.344239 -23.878125 
L 132.975669 -23.878125 
L 134.607099 -23.878125 
L 136.238529 -23.878125 
L 137.869959 -23.878125 
L 139.501389 -23.878125 
L 141.132819 -23.878125 
L 142.764249 -23.878125 
L 144.395678 -23.878125 
L 146.027108 -23.878125 
L 147.658538 -23.878125 
L 149.289968 -23.878125 
L 150.921398 -23.878125 
L 152.552828 -23.878125 
L 154.184258 -23.878125 
L 155.815688 -23.878125 
L 157.447117 -23.878125 
L 159.078547 -23.878125 
L 160.709977 -23.878125 
L 162.341407 -23.878125 
L 163.972837 -23.878125 
L 165.604267 -23.878125 
L 167.235697 -23.878125 
L 168.867127 -23.878125 
L 170.498556 -23.878125 
L 172.129986 -23.878125 
L 173.761416 -23.878125 
L 175.392846 -23.878125 
L 177.024276 -23.878125 
L 178.655706 -23.878125 
L 180.287136 -23.878125 
L 181.918566 -23.878125 
L 183.549995 -23.878125 
L 185.181425 -23.878125 
L 186.812855 -23.878125 
L 188.444285 -23.878125 
L 190.075715 -23.878125 
L 191.707145 -23.878125 
L 193.338575 -23.878125 
L 194.970005 -23.878125 
L 196.601434 -23.878125 
L 198.232864 -23.878125 
L 199.864294 -23.878125 
L 201.495724 -23.878125 
L 203.127154 -23.878125 
L 204.758584 -23.878125 
L 206.390014 -23.878125 
L 208.021444 -23.878125 
L 209.652873 -23.878125 
L 211.284303 -23.878125 
L 212.915733 -23.878125 
L 214.547163 -23.878125 
L 216.178593 -23.878125 
L 217.810023 -23.878125 
L 219.441453 -23.878125 
L 221.072883 -23.878125 
L 222.704312 -23.878125 
L 224.335742 -23.878125 
L 225.967172 -23.878125 
L 227.598602 -23.878125 
L 229.230032 -23.878125 
L 230.861462 -23.878125 
L 232.492892 -23.878125 
L 234.124322 -23.878125 
L 235.755751 -23.878125 
L 237.387181 -23.878125 
L 239.018611 -23.878125 
L 240.650041 -23.878125 
L 242.281471 -23.878125 
L 243.912901 -23.878125 
L 245.544331 -23.878125 
L 247.175761 -23.878125 
L 248.80719 -23.878125 
L 250.43862 -23.878125 
L 252.07005 -23.878125 
L 253.70148 -23.878125 
L 255.33291 -23.878125 
L 256.96434 -23.878125 
L 258.59577 -23.878125 
L 260.2272 -23.878125 
L 261.85863 -23.878125 
L 263.490059 -23.878125 
L 265.121489 -23.878125 
L 266.752919 -23.878125 
L 268.384349 -23.878125 
L 270.015779 -23.878125 
L 271.647209 -23.878125 
L 273.278639 -23.878125 
L 274.910069 -23.878125 
L 276.541498 -23.878125 
L 278.172928 -23.878125 
L 279.804358 -23.878125 
L 281.435788 -23.878125 
L 283.067218 -23.878125 
L 284.698648 -23.878125 
L 286.330078 -23.878125 
L 287.961508 -23.878125 
L 289.592937 -23.878125 
L 291.224367 -23.878125 
L 292.855797 -23.878125 
L 294.487227 -23.878125 
L 296.118657 -23.878125 
L 297.750087 -23.878125 
L 299.381517 -23.878125 
L 301.012947 -23.878125 
L 302.644376 -23.878125 
L 304.275806 -23.878125 
L 305.907236 -23.878125 
L 307.538666 -23.878125 
L 309.170096 -23.878125 
L 310.801526 -23.878125 
L 312.432956 -23.878125 
L 314.064386 -23.878125 
L 315.695815 -23.878125 
L 317.327245 -23.878125 
L 318.958675 -23.878125 
L 320.590105 -23.878125 
L 322.221535 -23.878125 
L 323.852965 -23.878125 
L 325.484395 -23.878125 
L 327.115825 -23.878125 
L 328.747254 -23.878125 
L 330.378684 -23.878125 
L 332.010114 -23.878125 
L 333.641544 -23.878125 
L 335.272974 -23.878125 
L 336.904404 -23.878125 
L 338.535834 -23.878125 
L 340.167264 -23.878125 
L 341.798693 -23.878125 
L 343.430123 -23.878125 
L 345.061553 -23.878125 
L 346.692983 -23.878125 
L 348.324413 -23.878125 
L 349.955843 -23.878125 
L 351.587273 -23.878125 
L 351.587273 -23.889389 
L 351.587273 -23.889389 
L 349.955843 -23.895771 
L 348.324413 -23.905126 
L 346.692983 -23.918478 
L 345.061553 -23.937031 
L 343.430123 -23.962115 
L 341.798693 -23.995104 
L 340.167264 -24.037277 
L 338.535834 -24.089652 
L 336.904404 -24.152795 
L 335.272974 -24.226626 
L 333.641544 -24.310267 
L 332.010114 -24.401961 
L 330.378684 -24.499112 
L 328.747254 -24.598457 
L 327.115825 -24.696398 
L 325.484395 -24.789464 
L 323.852965 -24.874873 
L 322.221535 -24.951115 
L 320.590105 -25.018487 
L 318.958675 -25.079475 
L 317.327245 -25.138923 
L 315.695815 -25.203926 
L 314.064386 -25.283442 
L 312.432956 -25.38764 
L 310.801526 -25.527061 
L 309.170096 -25.71169 
L 307.538666 -25.950055 
L 305.907236 -26.248464 
L 304.275806 -26.610484 
L 302.644376 -27.036711 
L 301.012947 -27.524846 
L 299.381517 -28.070033 
L 297.750087 -28.66538 
L 296.118657 -29.302557 
L 294.487227 -29.972371 
L 292.855797 -30.665234 
L 291.224367 -31.371508 
L 289.592937 -32.081752 
L 287.961508 -32.786967 
L 286.330078 -33.478943 
L 284.698648 -34.150843 
L 283.067218 -34.798083 
L 281.435788 -35.419524 
L 279.804358 -36.018865 
L 278.172928 -36.606081 
L 276.541498 -37.198645 
L 274.910069 -37.822284 
L 273.278639 -38.511047 
L 271.647209 -39.306536 
L 270.015779 -40.25626 
L 268.384349 -41.411206 
L 266.752919 -42.822819 
L 265.121489 -44.539656 
L 263.490059 -46.604032 
L 261.85863 -49.048974 
L 260.2272 -51.895752 
L 258.59577 -55.15222 
L 256.96434 -58.812103 
L 255.33291 -62.855304 
L 253.70148 -67.24921 
L 252.07005 -71.950889 
L 250.43862 -76.91 
L 248.80719 -82.072161 
L 247.175761 -87.382473 
L 245.544331 -92.788895 
L 243.912901 -98.245147 
L 242.281471 -103.712948 
L 240.650041 -109.163431 
L 239.018611 -114.577749 
L 237.387181 -119.946992 
L 235.755751 -125.271627 
L 234.124322 -130.56071 
L 232.492892 -135.831104 
L 230.861462 -141.106789 
L 229.230032 -146.418272 
L 227.598602 -151.801866 
L 225.967172 -157.298575 
L 224.335742 -162.952219 
L 222.704312 -168.80656 
L 221.072883 -174.901362 
L 219.441453 -181.267573 
L 217.810023 -187.922094 
L 216.178593 -194.862825 
L 214.547163 -202.064743 
L 212.915733 -209.47772 
L 211.284303 -217.026567 
L 209.652873 -224.613429 
L 208.021444 -232.122349 
L 206.390014 -239.425439 
L 204.758584 -246.38997 
L 203.127154 -252.885577 
L 201.495724 -258.79093 
L 199.864294 -263.99936 
L 198.232864 -268.423198 
L 196.601434 -271.996765 
L 194.970005 -274.678108 
L 193.338575 -276.449676 
L 191.707145 -277.318125 
L 190.075715 -277.313478 
L 188.444285 -276.487811 
L 186.812855 -274.913641 
L 185.181425 -272.682114 
L 183.549995 -269.901044 
L 181.918566 -266.692726 
L 180.287136 -263.191339 
L 178.655706 -259.53968 
L 177.024276 -255.884947 
L 175.392846 -252.373375 
L 173.761416 -249.14376 
L 172.129986 -246.320132 
L 170.498556 -244.004126 
L 168.867127 -242.267776 
L 167.235697 -241.147518 
L 165.604267 -240.640043 
L 163.972837 -240.700487 
L 162.341407 -241.243069 
L 160.709977 -242.144121 
L 159.078547 -243.247222 
L 157.447117 -244.370117 
L 155.815688 -245.313147 
L 154.184258 -245.868926 
L 152.552828 -245.833049 
L 150.921398 -245.015513 
L 149.289968 -243.252317 
L 147.658538 -240.416495 
L 146.027108 -236.427589 
L 144.395678 -231.25844 
L 142.764249 -224.938332 
L 141.132819 -217.551754 
L 139.501389 -209.232643 
L 137.869959 -200.154504 
L 136.238529 -190.517467 
L 134.607099 -180.533764 
L 132.975669 -170.413323 
L 131.344239 -160.351145 
L 129.71281 -150.517748 
L 128.08138 -141.053471 
L 126.44995 -132.066761 
L 124.81852 -123.63596 
L 123.18709 -115.813645 
L 121.55566 -108.632253 
L 119.92423 -102.109721 
L 118.2928 -96.254048 
L 116.66137 -91.066087 
L 115.029941 -86.540336 
L 113.398511 -82.664019 
L 111.767081 -79.415126 
L 110.135651 -76.760324 
L 108.504221 -74.653651 
L 106.872791 -73.036715 
L 105.241361 -71.840743 
L 103.609931 -70.990372 
L 101.978502 -70.408623 
L 100.347072 -70.022222 
L 98.715642 -69.766237 
L 97.084212 -69.587166 
L 95.452782 -69.443875 
L 93.821352 -69.306223 
L 92.189922 -69.151738 
L 90.558492 -68.961078 
L 88.927063 -68.713333 
L 87.295633 -68.38224 
L 85.664203 -67.934228 
L 84.032773 -67.328836 
L 82.401343 -66.521577 
L 80.769913 -65.468781 
L 79.138483 -64.133598 
L 77.507053 -62.492044 
L 75.875624 -60.537982 
L 74.244194 -58.28611 
L 72.612764 -55.772397 
L 70.981334 -53.051859 
L 69.349904 -50.194023 
L 67.718474 -47.276795 
L 66.087044 -44.379659 
L 64.455614 -41.577149 
L 62.824185 -38.93342 
L 61.192755 -36.498478 
L 59.561325 -34.3063 
L 57.929895 -32.374793 
L 56.298465 -30.707259 
L 54.667035 -29.294923 
L 53.035605 -28.119997 
L 51.404175 -27.158825 
L 49.772746 -26.384742 
L 48.141316 -25.770419 
L 46.509886 -25.289601 
L 44.878456 -24.918235 
L 43.247026 -24.635087 
L 41.615596 -24.421954 
L 39.984166 -24.263599 
L 38.352736 -24.147513 
L 36.721307 -24.063604 
L 35.089877 -24.003845 
L 33.458447 -23.961951 
L 31.827017 -23.933064 
L 30.195587 -23.913492 
L 28.564157 -23.900473 
L 26.932727 -23.891978 
z
" style="stroke: #31688e"/>
    </defs>
    <g clip-path="url(#pe0d0dea9b5)">
     <use xlink:href="#m9937cf60f3" x="0" y="312.30825" style="fill: #31688e; fill-opacity: 0.25; stroke: #31688e"/>
    </g>
   </g>
   <g id="matplotlib.axis_1">
    <g id="xtick_1">
     <g id="line2d_1">
      <defs>
       <path id="m7307b2c81e" d="M 0 0 
L 0 3.5 
" style="stroke: #666666; stroke-opacity: 0.015686; stroke-width: 0.8"/>
      </defs>
      <g>
       <use xlink:href="#m7307b2c81e" x="53.445584" y="288.430125" style="fill: #666666; fill-opacity: 0.015686; stroke: #666666; stroke-opacity: 0.015686; stroke-width: 0.8"/>
      </g>
     </g>
     <g id="text_1">
      <!-- −2 -->
      <g style="fill: #666666" transform="translate(46.074491 303.028562)scale(0.1 -0.1)">
       <defs>
        <path id="DejaVuSans-2212" d="M 678 2272 
L 4684 2272 
L 4684 1741 
L 678 1741 
L 678 2272 
z
" transform="scale(0.015625)"/>
        <path id="DejaVuSans-32" d="M 1228 531 
L 3431 531 
L 3431 0 
L 469 0 
L 469 531 
Q 828 903 1448 1529 
Q 2069 2156 2228 2338 
Q 2531 2678 2651 2914 
Q 2772 3150 2772 3378 
Q 2772 3750 2511 3984 
Q 2250 4219 1831 4219 
Q 1534 4219 1204 4116 
Q 875 4013 500 3803 
L 500 4441 
Q 881 4594 1212 4672 
Q 1544 4750 1819 4750 
Q 2544 4750 2975 4387 
Q 3406 4025 3406 3419 
Q 3406 3131 3298 2873 
Q 3191 2616 2906 2266 
Q 2828 2175 2409 1742 
Q 1991 1309 1228 531 
z
" transform="scale(0.015625)"/>
       </defs>
       <use xlink:href="#DejaVuSans-2212"/>
       <use xlink:href="#DejaVuSans-32" x="83.789062"/>
      </g>
     </g>
    </g>
    <g id="xtick_2">
     <g id="line2d_2">
      <g>
       <use xlink:href="#m7307b2c81e" x="115.926103" y="288.430125" style="fill: #666666; fill-opacity: 0.015686; stroke: #666666; stroke-opacity: 0.015686; stroke-width: 0.8"/>
      </g>
     </g>
     <g id="text_2">
      <!-- −1 -->
      <g style="fill: #666666" transform="translate(108.55501 303.028562)scale(0.1 -0.1)">
       <defs>
        <path id="DejaVuSans-31" d="M 794 531 
L 1825 531 
L 1825 4091 
L 703 3866 
L 703 4441 
L 1819 4666 
L 2450 4666 
L 2450 531 
L 3481 531 
L 3481 0 
L 794 0 
L 794 531 
z
" transform="scale(0.015625)"/>
       </defs>
       <use xlink:href="#DejaVuSans-2212"/>
       <use xlink:href="#DejaVuSans-31" x="83.789062"/>
      </g>
     </g>
    </g>
    <g id="xtick_3">
     <g id="line2d_3">
      <g>
       <use xlink:href="#m7307b2c81e" x="178.406622" y="288.430125" style="fill: #666666; fill-opacity: 0.015686; stroke: #666666; stroke-opacity: 0.015686; stroke-width: 0.8"/>
      </g>
     </g>
     <g id="text_3">
      <!-- 0 -->
      <g style="fill: #666666" transform="translate(175.225372 303.028562)scale(0.1 -0.1)">
       <defs>
        <path id="DejaVuSans-30" d="M 2034 4250 
Q 1547 4250 1301 3770 
Q 1056 3291 1056 2328 
Q 1056 1369 1301 889 
Q 1547 409 2034 409 
Q 2525 409 2770 889 
Q 3016 1369 3016 2328 
Q 3016 3291 2770 3770 
Q 2525 4250 2034 4250 
z
M 2034 4750 
Q 2819 4750 3233 4129 
Q 3647 3509 3647 2328 
Q 3647 1150 3233 529 
Q 2819 -91 2034 -91 
Q 1250 -91 836 529 
Q 422 1150 422 2328 
Q 422 3509 836 4129 
Q 1250 4750 2034 4750 
z
" transform="scale(0.015625)"/>
       </defs>
       <use xlink:href="#DejaVuSans-30"/>
      </g>
     </g>
    </g>
    <g id="xtick_4">
     <g id="line2d_4">
      <g>
       <use xlink:href="#m7307b2c81e" x="240.887142" y="288.430125" style="fill: #666666; fill-opacity: 0.015686; stroke: #666666; stroke-opacity: 0.015686; stroke-width: 0.8"/>
      </g>
     </g>
     <g id="text_4">
      <!-- 1 -->
      <g style="fill: #666666" transform="translate(237.705892 303.028562)scale(0.1 -0.1)">
       <use xlink:href="#DejaVuSans-31"/>
      </g>
     </g>
    </g>
    <g id="xtick_5">
     <g id="line2d_5">
      <g>
       <use xlink:href="#m7307b2c81e" x="303.367661" y="288.430125" style="fill: #666666; fill-opacity: 0.015686; stroke: #666666; stroke-opacity: 0.015686; stroke-width: 0.8"/>
      </g>
     </g>
     <g id="text_5">
      <!-- 2 -->
      <g style="fill: #666666" transform="translate(300.186411 303.028562)scale(0.1 -0.1)">
       <use xlink:href="#DejaVuSans-32"/>
      </g>
     </g>
    </g>
    <g id="xtick_6">
     <g id="line2d_6">
      <g>
       <use xlink:href="#m7307b2c81e" x="365.84818" y="288.430125" style="fill: #666666; fill-opacity: 0.015686; stroke: #666666; stroke-opacity: 0.015686; stroke-width: 0.8"/>
      </g>
     </g>
     <g id="text_6">
      <!-- 3 -->
      <g style="fill: #666666" transform="translate(362.66693 303.028562)scale(0.1 -0.1)">
       <defs>
        <path id="DejaVuSans-33" d="M 2597 2516 
Q 3050 2419 3304 2112 
Q 3559 1806 3559 1356 
Q 3559 666 3084 287 
Q 2609 -91 1734 -91 
Q 1441 -91 1130 -33 
Q 819 25 488 141 
L 488 750 
Q 750 597 1062 519 
Q 1375 441 1716 441 
Q 2309 441 2620 675 
Q 2931 909 2931 1356 
Q 2931 1769 2642 2001 
Q 2353 2234 1838 2234 
L 1294 2234 
L 1294 2753 
L 1863 2753 
Q 2328 2753 2575 2939 
Q 2822 3125 2822 3475 
Q 2822 3834 2567 4026 
Q 2313 4219 1838 4219 
Q 1578 4219 1281 4162 
Q 984 4106 628 3988 
L 628 4550 
Q 988 4650 1302 4700 
Q 1616 4750 1894 4750 
Q 2613 4750 3031 4423 
Q 3450 4097 3450 3541 
Q 3450 3153 3228 2886 
Q 3006 2619 2597 2516 
z
" transform="scale(0.015625)"/>
       </defs>
       <use xlink:href="#DejaVuSans-33"/>
      </g>
     </g>
    </g>
   </g>
   <g id="matplotlib.axis_2"/>
   <g id="patch_3">
    <path d="M 10.7 288.430125 
L 10.7 22.318125 
" style="fill: none"/>
   </g>
   <g id="patch_4">
    <path d="M 367.82 288.430125 
L 367.82 22.318125 
" style="fill: none"/>
   </g>
   <g id="patch_5">
    <path d="M 10.7 288.430125 
L 367.82 288.430125 
" style="fill: none"/>
   </g>
   <g id="patch_6">
    <path d="M 10.7 22.318125 
L 367.82 22.318125 
" style="fill: none"/>
   </g>
   <g id="text_7">
    <!-- $N = $1000 -->
    <g style="fill: #666666" transform="translate(162.08 16.318125)scale(0.12 -0.12)">
     <defs>
      <path id="DejaVuSans-Oblique-4e" d="M 1081 4666 
L 1931 4666 
L 3219 666 
L 4000 4666 
L 4616 4666 
L 3706 0 
L 2853 0 
L 1569 4025 
L 788 0 
L 172 0 
L 1081 4666 
z
" transform="scale(0.015625)"/>
      <path id="DejaVuSans-3d" d="M 678 2906 
L 4684 2906 
L 4684 2381 
L 678 2381 
L 678 2906 
z
M 678 1631 
L 4684 1631 
L 4684 1100 
L 678 1100 
L 678 1631 
z
" transform="scale(0.015625)"/>
     </defs>
     <use xlink:href="#DejaVuSans-Oblique-4e" transform="translate(0 0.78125)"/>
     <use xlink:href="#DejaVuSans-3d" transform="translate(94.287109 0.78125)"/>
     <use xlink:href="#DejaVuSans-31" transform="translate(197.558594 0.78125)"/>
     <use xlink:href="#DejaVuSans-30" transform="translate(261.181641 0.78125)"/>
     <use xlink:href="#DejaVuSans-30" transform="translate(324.804688 0.78125)"/>
     <use xlink:href="#DejaVuSans-30" transform="translate(388.427734 0.78125)"/>
    </g>
   </g>
  </g>
 </g>
 <defs>
  <clipPath id="pe0d0dea9b5">
   <rect x="10.7" y="22.318125" width="357.12" height="266.112"/>
  </clipPath>
 </defs>
</svg>
