<?xml version="1.0" encoding="utf-8" standalone="no"?>
<!DOCTYPE svg PUBLIC "-//W3C//DTD SVG 1.1//EN"
  "http://www.w3.org/Graphics/SVG/1.1/DTD/svg11.dtd">
<svg xmlns:xlink="http://www.w3.org/1999/xlink" width="375.02pt" height="312.30825pt" viewBox="0 0 375.02 312.30825" xmlns="http://www.w3.org/2000/svg" version="1.1">
 <metadata>
  <rdf:RDF xmlns:dc="http://purl.org/dc/elements/1.1/" xmlns:cc="http://creativecommons.org/ns#" xmlns:rdf="http://www.w3.org/1999/02/22-rdf-syntax-ns#">
   <cc:Work>
    <dc:type rdf:resource="http://purl.org/dc/dcmitype/StillImage"/>
    <dc:date>2022-03-19T13:27:54.960331</dc:date>
    <dc:format>image/svg+xml</dc:format>
    <dc:creator>
     <cc:Agent>
      <dc:title>Matplotlib v3.5.1, https://matplotlib.org/</dc:title>
     </cc:Agent>
    </dc:creator>
   </cc:Work>
  </rdf:RDF>
 </metadata>
 <defs>
  <style type="text/css">*{stroke-linejoin: round; stroke-linecap: butt}</style>
 </defs>
 <g id="figure_1">
  <g id="patch_1">
   <path d="M 0 312.30825 
L 375.02 312.30825 
L 375.02 0 
L 0 0 
L 0 312.30825 
z
" style="fill: none"/>
  </g>
  <g id="axes_1">
   <g id="patch_2">
    <path d="M 10.7 288.430125 
L 367.82 288.430125 
L 367.82 22.318125 
L 10.7 22.318125 
L 10.7 288.430125 
z
" style="fill: none"/>
   </g>
   <g id="PolyCollection_1">
    <defs>
     <path id="mc307c482a8" d="M 26.932727 -24.127578 
L 26.932727 -23.878125 
L 28.564157 -23.878125 
L 30.195587 -23.878125 
L 31.827017 -23.878125 
L 33.458447 -23.878125 
L 35.089877 -23.878125 
L 36.721307 -23.878125 
L 38.352736 -23.878125 
L 39.984166 -23.878125 
L 41.615596 -23.878125 
L 43.247026 -23.878125 
L 44.878456 -23.878125 
L 46.509886 -23.878125 
L 48.141316 -23.878125 
L 49.772746 -23.878125 
L 51.404175 -23.878125 
L 53.035605 -23.878125 
L 54.667035 -23.878125 
L 56.298465 -23.878125 
L 57.929895 -23.878125 
L 59.561325 -23.878125 
L 61.192755 -23.878125 
L 62.824185 -23.878125 
L 64.455614 -23.878125 
L 66.087044 -23.878125 
L 67.718474 -23.878125 
L 69.349904 -23.878125 
L 70.981334 -23.878125 
L 72.612764 -23.878125 
L 74.244194 -23.878125 
L 75.875624 -23.878125 
L 77.507053 -23.878125 
L 79.138483 -23.878125 
L 80.769913 -23.878125 
L 82.401343 -23.878125 
L 84.032773 -23.878125 
L 85.664203 -23.878125 
L 87.295633 -23.878125 
L 88.927063 -23.878125 
L 90.558492 -23.878125 
L 92.189922 -23.878125 
L 93.821352 -23.878125 
L 95.452782 -23.878125 
L 97.084212 -23.878125 
L 98.715642 -23.878125 
L 100.347072 -23.878125 
L 101.978502 -23.878125 
L 103.609931 -23.878125 
L 105.241361 -23.878125 
L 106.872791 -23.878125 
L 108.504221 -23.878125 
L 110.135651 -23.878125 
L 111.767081 -23.878125 
L 113.398511 -23.878125 
L 115.029941 -23.878125 
L 116.66137 -23.878125 
L 118.2928 -23.878125 
L 119.92423 -23.878125 
L 121.55566 -23.878125 
L 123.18709 -23.878125 
L 124.81852 -23.878125 
L 126.44995 -23.878125 
L 128.08138 -23.878125 
L 129.71281 -23.878125 
L 131.344239 -23.878125 
L 132.975669 -23.878125 
L 134.607099 -23.878125 
L 136.238529 -23.878125 
L 137.869959 -23.878125 
L 139.501389 -23.878125 
L 141.132819 -23.878125 
L 142.764249 -23.878125 
L 144.395678 -23.878125 
L 146.027108 -23.878125 
L 147.658538 -23.878125 
L 149.289968 -23.878125 
L 150.921398 -23.878125 
L 152.552828 -23.878125 
L 154.184258 -23.878125 
L 155.815688 -23.878125 
L 157.447117 -23.878125 
L 159.078547 -23.878125 
L 160.709977 -23.878125 
L 162.341407 -23.878125 
L 163.972837 -23.878125 
L 165.604267 -23.878125 
L 167.235697 -23.878125 
L 168.867127 -23.878125 
L 170.498556 -23.878125 
L 172.129986 -23.878125 
L 173.761416 -23.878125 
L 175.392846 -23.878125 
L 177.024276 -23.878125 
L 178.655706 -23.878125 
L 180.287136 -23.878125 
L 181.918566 -23.878125 
L 183.549995 -23.878125 
L 185.181425 -23.878125 
L 186.812855 -23.878125 
L 188.444285 -23.878125 
L 190.075715 -23.878125 
L 191.707145 -23.878125 
L 193.338575 -23.878125 
L 194.970005 -23.878125 
L 196.601434 -23.878125 
L 198.232864 -23.878125 
L 199.864294 -23.878125 
L 201.495724 -23.878125 
L 203.127154 -23.878125 
L 204.758584 -23.878125 
L 206.390014 -23.878125 
L 208.021444 -23.878125 
L 209.652873 -23.878125 
L 211.284303 -23.878125 
L 212.915733 -23.878125 
L 214.547163 -23.878125 
L 216.178593 -23.878125 
L 217.810023 -23.878125 
L 219.441453 -23.878125 
L 221.072883 -23.878125 
L 222.704312 -23.878125 
L 224.335742 -23.878125 
L 225.967172 -23.878125 
L 227.598602 -23.878125 
L 229.230032 -23.878125 
L 230.861462 -23.878125 
L 232.492892 -23.878125 
L 234.124322 -23.878125 
L 235.755751 -23.878125 
L 237.387181 -23.878125 
L 239.018611 -23.878125 
L 240.650041 -23.878125 
L 242.281471 -23.878125 
L 243.912901 -23.878125 
L 245.544331 -23.878125 
L 247.175761 -23.878125 
L 248.80719 -23.878125 
L 250.43862 -23.878125 
L 252.07005 -23.878125 
L 253.70148 -23.878125 
L 255.33291 -23.878125 
L 256.96434 -23.878125 
L 258.59577 -23.878125 
L 260.2272 -23.878125 
L 261.85863 -23.878125 
L 263.490059 -23.878125 
L 265.121489 -23.878125 
L 266.752919 -23.878125 
L 268.384349 -23.878125 
L 270.015779 -23.878125 
L 271.647209 -23.878125 
L 273.278639 -23.878125 
L 274.910069 -23.878125 
L 276.541498 -23.878125 
L 278.172928 -23.878125 
L 279.804358 -23.878125 
L 281.435788 -23.878125 
L 283.067218 -23.878125 
L 284.698648 -23.878125 
L 286.330078 -23.878125 
L 287.961508 -23.878125 
L 289.592937 -23.878125 
L 291.224367 -23.878125 
L 292.855797 -23.878125 
L 294.487227 -23.878125 
L 296.118657 -23.878125 
L 297.750087 -23.878125 
L 299.381517 -23.878125 
L 301.012947 -23.878125 
L 302.644376 -23.878125 
L 304.275806 -23.878125 
L 305.907236 -23.878125 
L 307.538666 -23.878125 
L 309.170096 -23.878125 
L 310.801526 -23.878125 
L 312.432956 -23.878125 
L 314.064386 -23.878125 
L 315.695815 -23.878125 
L 317.327245 -23.878125 
L 318.958675 -23.878125 
L 320.590105 -23.878125 
L 322.221535 -23.878125 
L 323.852965 -23.878125 
L 325.484395 -23.878125 
L 327.115825 -23.878125 
L 328.747254 -23.878125 
L 330.378684 -23.878125 
L 332.010114 -23.878125 
L 333.641544 -23.878125 
L 335.272974 -23.878125 
L 336.904404 -23.878125 
L 338.535834 -23.878125 
L 340.167264 -23.878125 
L 341.798693 -23.878125 
L 343.430123 -23.878125 
L 345.061553 -23.878125 
L 346.692983 -23.878125 
L 348.324413 -23.878125 
L 349.955843 -23.878125 
L 351.587273 -23.878125 
L 351.587273 -23.95843 
L 351.587273 -23.95843 
L 349.955843 -23.984325 
L 348.324413 -24.017476 
L 346.692983 -24.059559 
L 345.061553 -24.112528 
L 343.430123 -24.178636 
L 341.798693 -24.260444 
L 340.167264 -24.360825 
L 338.535834 -24.482952 
L 336.904404 -24.630278 
L 335.272974 -24.806494 
L 333.641544 -25.015475 
L 332.010114 -25.261204 
L 330.378684 -25.547675 
L 328.747254 -25.878782 
L 327.115825 -26.258189 
L 325.484395 -26.689186 
L 323.852965 -27.174533 
L 322.221535 -27.716304 
L 320.590105 -28.315731 
L 318.958675 -28.973056 
L 317.327245 -29.687406 
L 315.695815 -30.456691 
L 314.064386 -31.277537 
L 312.432956 -32.145266 
L 310.801526 -33.053921 
L 309.170096 -33.996349 
L 307.538666 -34.964341 
L 305.907236 -35.948827 
L 304.275806 -36.94013 
L 302.644376 -37.92826 
L 301.012947 -38.903258 
L 299.381517 -39.855553 
L 297.750087 -40.776342 
L 296.118657 -41.657959 
L 294.487227 -42.494214 
L 292.855797 -43.280696 
L 291.224367 -44.015013 
L 289.592937 -44.696953 
L 287.961508 -45.328554 
L 286.330078 -45.914076 
L 284.698648 -46.459871 
L 283.067218 -46.974149 
L 281.435788 -47.466644 
L 279.804358 -47.948212 
L 278.172928 -48.430343 
L 276.541498 -48.924649 
L 274.910069 -49.442321 
L 273.278639 -49.993599 
L 271.647209 -50.587274 
L 270.015779 -51.230262 
L 268.384349 -51.927245 
L 266.752919 -52.680436 
L 265.121489 -53.489453 
L 263.490059 -54.351326 
L 261.85863 -55.260643 
L 260.2272 -56.209828 
L 258.59577 -57.189546 
L 256.96434 -58.189227 
L 255.33291 -59.19769 
L 253.70148 -60.203853 
L 252.07005 -61.197499 
L 250.43862 -62.170078 
L 248.80719 -63.115525 
L 247.175761 -64.031049 
L 245.544331 -64.917885 
L 243.912901 -65.781964 
L 242.281471 -66.634471 
L 240.650041 -67.492275 
L 239.018611 -68.378179 
L 237.387181 -69.320981 
L 235.755751 -70.35531 
L 234.124322 -71.521225 
L 232.492892 -72.863544 
L 230.861462 -74.430921 
L 229.230032 -76.274661 
L 227.598602 -78.44728 
L 225.967172 -81.000864 
L 224.335742 -83.98524 
L 222.704312 -87.446039 
L 221.072883 -91.422706 
L 219.441453 -95.94655 
L 217.810023 -101.038912 
L 216.178593 -106.70955 
L 214.547163 -112.955334 
L 212.915733 -119.759334 
L 211.284303 -127.090377 
L 209.652873 -134.903119 
L 208.021444 -143.138684 
L 206.390014 -151.725842 
L 204.758584 -160.582733 
L 203.127154 -169.619052 
L 201.495724 -178.738627 
L 199.864294 -187.842271 
L 198.232864 -196.830767 
L 196.601434 -205.607863 
L 194.970005 -214.083106 
L 193.338575 -222.174391 
L 191.707145 -229.81009 
L 190.075715 -236.930674 
L 188.444285 -243.489742 
L 186.812855 -249.454442 
L 185.181425 -254.805293 
L 183.549995 -259.535438 
L 181.918566 -263.649428 
L 180.287136 -267.161644 
L 178.655706 -270.094464 
L 177.024276 -272.476339 
L 175.392846 -274.339885 
L 173.761416 -275.720137 
L 172.129986 -276.653028 
L 170.498556 -277.174195 
L 168.867127 -277.318125 
L 167.235697 -277.117646 
L 165.604267 -276.603733 
L 163.972837 -275.80556 
L 162.341407 -274.750735 
L 160.709977 -273.465599 
L 159.078547 -271.975524 
L 157.447117 -270.305107 
L 155.815688 -268.478192 
L 154.184258 -266.517694 
L 152.552828 -264.445187 
L 150.921398 -262.280286 
L 149.289968 -260.039862 
L 147.658538 -257.737155 
L 146.027108 -255.380884 
L 144.395678 -252.97444 
L 142.764249 -250.515268 
L 141.132819 -247.994524 
L 139.501389 -245.397095 
L 137.869959 -242.702009 
L 136.238529 -239.883276 
L 134.607099 -236.911128 
L 132.975669 -233.753625 
L 131.344239 -230.37853 
L 129.71281 -226.755357 
L 128.08138 -222.85746 
L 126.44995 -218.664033 
L 124.81852 -214.161878 
L 123.18709 -209.346817 
L 121.55566 -204.224649 
L 119.92423 -198.811568 
L 118.2928 -193.134006 
L 116.66137 -187.227903 
L 115.029941 -181.137418 
L 113.398511 -174.913192 
L 111.767081 -168.610227 
L 110.135651 -162.285539 
L 108.504221 -155.99571 
L 106.872791 -149.794503 
L 105.241361 -143.730657 
L 103.609931 -137.846021 
L 101.978502 -132.174096 
L 100.347072 -126.739084 
L 98.715642 -121.555467 
L 97.084212 -116.628122 
L 95.452782 -111.952947 
L 93.821352 -107.517927 
L 92.189922 -103.304562 
L 90.558492 -99.28955 
L 88.927063 -95.446603 
L 87.295633 -91.748298 
L 85.664203 -88.167831 
L 84.032773 -84.680594 
L 82.401343 -81.265484 
L 80.769913 -77.9059 
L 79.138483 -74.590376 
L 77.507053 -71.312859 
L 75.875624 -68.072643 
L 74.244194 -64.873984 
L 72.612764 -61.72546 
L 70.981334 -58.639126 
L 69.349904 -55.629547 
L 67.718474 -52.712761 
L 66.087044 -49.905255 
L 64.455614 -47.223006 
L 62.824185 -44.680627 
L 61.192755 -42.290671 
L 59.561325 -40.063105 
L 57.929895 -38.004967 
L 56.298465 -36.120194 
L 54.667035 -34.409635 
L 53.035605 -32.871193 
L 51.404175 -31.500091 
L 49.772746 -30.289238 
L 48.141316 -29.229635 
L 46.509886 -28.310828 
L 44.878456 -27.521353 
L 43.247026 -26.849161 
L 41.615596 -26.282014 
L 39.984166 -25.807821 
L 38.352736 -25.414921 
L 36.721307 -25.092303 
L 35.089877 -24.829771 
L 33.458447 -24.618044 
L 31.827017 -24.448813 
L 30.195587 -24.314751 
L 28.564157 -24.209492 
L 26.932727 -24.127578 
z
" style="stroke: #440154"/>
    </defs>
    <g clip-path="url(#p158a28b9b4)">
     <use xlink:href="#mc307c482a8" x="0" y="312.30825" style="fill: #440154; fill-opacity: 0.25; stroke: #440154"/>
    </g>
   </g>
   <g id="matplotlib.axis_1">
    <g id="xtick_1">
     <g id="line2d_1">
      <defs>
       <path id="mc952e90a02" d="M 0 0 
L 0 3.5 
" style="stroke: #666666; stroke-opacity: 0.015686; stroke-width: 0.8"/>
      </defs>
      <g>
       <use xlink:href="#mc952e90a02" x="26.410503" y="288.430125" style="fill: #666666; fill-opacity: 0.015686; stroke: #666666; stroke-opacity: 0.015686; stroke-width: 0.8"/>
      </g>
     </g>
     <g id="text_1">
      <!-- −2 -->
      <g style="fill: #666666" transform="translate(19.039409 303.028562)scale(0.1 -0.1)">
       <defs>
        <path id="DejaVuSans-2212" d="M 678 2272 
L 4684 2272 
L 4684 1741 
L 678 1741 
L 678 2272 
z
" transform="scale(0.015625)"/>
        <path id="DejaVuSans-32" d="M 1228 531 
L 3431 531 
L 3431 0 
L 469 0 
L 469 531 
Q 828 903 1448 1529 
Q 2069 2156 2228 2338 
Q 2531 2678 2651 2914 
Q 2772 3150 2772 3378 
Q 2772 3750 2511 3984 
Q 2250 4219 1831 4219 
Q 1534 4219 1204 4116 
Q 875 4013 500 3803 
L 500 4441 
Q 881 4594 1212 4672 
Q 1544 4750 1819 4750 
Q 2544 4750 2975 4387 
Q 3406 4025 3406 3419 
Q 3406 3131 3298 2873 
Q 3191 2616 2906 2266 
Q 2828 2175 2409 1742 
Q 1991 1309 1228 531 
z
" transform="scale(0.015625)"/>
       </defs>
       <use xlink:href="#DejaVuSans-2212"/>
       <use xlink:href="#DejaVuSans-32" x="83.789062"/>
      </g>
     </g>
    </g>
    <g id="xtick_2">
     <g id="line2d_2">
      <g>
       <use xlink:href="#mc952e90a02" x="86.745064" y="288.430125" style="fill: #666666; fill-opacity: 0.015686; stroke: #666666; stroke-opacity: 0.015686; stroke-width: 0.8"/>
      </g>
     </g>
     <g id="text_2">
      <!-- −1 -->
      <g style="fill: #666666" transform="translate(79.373971 303.028562)scale(0.1 -0.1)">
       <defs>
        <path id="DejaVuSans-31" d="M 794 531 
L 1825 531 
L 1825 4091 
L 703 3866 
L 703 4441 
L 1819 4666 
L 2450 4666 
L 2450 531 
L 3481 531 
L 3481 0 
L 794 0 
L 794 531 
z
" transform="scale(0.015625)"/>
       </defs>
       <use xlink:href="#DejaVuSans-2212"/>
       <use xlink:href="#DejaVuSans-31" x="83.789062"/>
      </g>
     </g>
    </g>
    <g id="xtick_3">
     <g id="line2d_3">
      <g>
       <use xlink:href="#mc952e90a02" x="147.079625" y="288.430125" style="fill: #666666; fill-opacity: 0.015686; stroke: #666666; stroke-opacity: 0.015686; stroke-width: 0.8"/>
      </g>
     </g>
     <g id="text_3">
      <!-- 0 -->
      <g style="fill: #666666" transform="translate(143.898375 303.028562)scale(0.1 -0.1)">
       <defs>
        <path id="DejaVuSans-30" d="M 2034 4250 
Q 1547 4250 1301 3770 
Q 1056 3291 1056 2328 
Q 1056 1369 1301 889 
Q 1547 409 2034 409 
Q 2525 409 2770 889 
Q 3016 1369 3016 2328 
Q 3016 3291 2770 3770 
Q 2525 4250 2034 4250 
z
M 2034 4750 
Q 2819 4750 3233 4129 
Q 3647 3509 3647 2328 
Q 3647 1150 3233 529 
Q 2819 -91 2034 -91 
Q 1250 -91 836 529 
Q 422 1150 422 2328 
Q 422 3509 836 4129 
Q 1250 4750 2034 4750 
z
" transform="scale(0.015625)"/>
       </defs>
       <use xlink:href="#DejaVuSans-30"/>
      </g>
     </g>
    </g>
    <g id="xtick_4">
     <g id="line2d_4">
      <g>
       <use xlink:href="#mc952e90a02" x="207.414187" y="288.430125" style="fill: #666666; fill-opacity: 0.015686; stroke: #666666; stroke-opacity: 0.015686; stroke-width: 0.8"/>
      </g>
     </g>
     <g id="text_4">
      <!-- 1 -->
      <g style="fill: #666666" transform="translate(204.232937 303.028562)scale(0.1 -0.1)">
       <use xlink:href="#DejaVuSans-31"/>
      </g>
     </g>
    </g>
    <g id="xtick_5">
     <g id="line2d_5">
      <g>
       <use xlink:href="#mc952e90a02" x="267.748748" y="288.430125" style="fill: #666666; fill-opacity: 0.015686; stroke: #666666; stroke-opacity: 0.015686; stroke-width: 0.8"/>
      </g>
     </g>
     <g id="text_5">
      <!-- 2 -->
      <g style="fill: #666666" transform="translate(264.567498 303.028562)scale(0.1 -0.1)">
       <use xlink:href="#DejaVuSans-32"/>
      </g>
     </g>
    </g>
    <g id="xtick_6">
     <g id="line2d_6">
      <g>
       <use xlink:href="#mc952e90a02" x="328.083309" y="288.430125" style="fill: #666666; fill-opacity: 0.015686; stroke: #666666; stroke-opacity: 0.015686; stroke-width: 0.8"/>
      </g>
     </g>
     <g id="text_6">
      <!-- 3 -->
      <g style="fill: #666666" transform="translate(324.902059 303.028562)scale(0.1 -0.1)">
       <defs>
        <path id="DejaVuSans-33" d="M 2597 2516 
Q 3050 2419 3304 2112 
Q 3559 1806 3559 1356 
Q 3559 666 3084 287 
Q 2609 -91 1734 -91 
Q 1441 -91 1130 -33 
Q 819 25 488 141 
L 488 750 
Q 750 597 1062 519 
Q 1375 441 1716 441 
Q 2309 441 2620 675 
Q 2931 909 2931 1356 
Q 2931 1769 2642 2001 
Q 2353 2234 1838 2234 
L 1294 2234 
L 1294 2753 
L 1863 2753 
Q 2328 2753 2575 2939 
Q 2822 3125 2822 3475 
Q 2822 3834 2567 4026 
Q 2313 4219 1838 4219 
Q 1578 4219 1281 4162 
Q 984 4106 628 3988 
L 628 4550 
Q 988 4650 1302 4700 
Q 1616 4750 1894 4750 
Q 2613 4750 3031 4423 
Q 3450 4097 3450 3541 
Q 3450 3153 3228 2886 
Q 3006 2619 2597 2516 
z
" transform="scale(0.015625)"/>
       </defs>
       <use xlink:href="#DejaVuSans-33"/>
      </g>
     </g>
    </g>
   </g>
   <g id="matplotlib.axis_2"/>
   <g id="patch_3">
    <path d="M 10.7 288.430125 
L 10.7 22.318125 
" style="fill: none"/>
   </g>
   <g id="patch_4">
    <path d="M 367.82 288.430125 
L 367.82 22.318125 
" style="fill: none"/>
   </g>
   <g id="patch_5">
    <path d="M 10.7 288.430125 
L 367.82 288.430125 
" style="fill: none"/>
   </g>
   <g id="patch_6">
    <path d="M 10.7 22.318125 
L 367.82 22.318125 
" style="fill: none"/>
   </g>
   <g id="text_7">
    <!-- $N = $100 -->
    <g style="fill: #666666" transform="translate(165.92 16.318125)scale(0.12 -0.12)">
     <defs>
      <path id="DejaVuSans-Oblique-4e" d="M 1081 4666 
L 1931 4666 
L 3219 666 
L 4000 4666 
L 4616 4666 
L 3706 0 
L 2853 0 
L 1569 4025 
L 788 0 
L 172 0 
L 1081 4666 
z
" transform="scale(0.015625)"/>
      <path id="DejaVuSans-3d" d="M 678 2906 
L 4684 2906 
L 4684 2381 
L 678 2381 
L 678 2906 
z
M 678 1631 
L 4684 1631 
L 4684 1100 
L 678 1100 
L 678 1631 
z
" transform="scale(0.015625)"/>
     </defs>
     <use xlink:href="#DejaVuSans-Oblique-4e" transform="translate(0 0.78125)"/>
     <use xlink:href="#DejaVuSans-3d" transform="translate(94.287109 0.78125)"/>
     <use xlink:href="#DejaVuSans-31" transform="translate(197.558594 0.78125)"/>
     <use xlink:href="#DejaVuSans-30" transform="translate(261.181641 0.78125)"/>
     <use xlink:href="#DejaVuSans-30" transform="translate(324.804688 0.78125)"/>
    </g>
   </g>
  </g>
 </g>
 <defs>
  <clipPath id="p158a28b9b4">
   <rect x="10.7" y="22.318125" width="357.12" height="266.112"/>
  </clipPath>
 </defs>
</svg>
