<?xml version="1.0" encoding="utf-8" standalone="no"?>
<!DOCTYPE svg PUBLIC "-//W3C//DTD SVG 1.1//EN"
  "http://www.w3.org/Graphics/SVG/1.1/DTD/svg11.dtd">
<svg xmlns:xlink="http://www.w3.org/1999/xlink" width="375.02pt" height="312.30825pt" viewBox="0 0 375.02 312.30825" xmlns="http://www.w3.org/2000/svg" version="1.1">
 <metadata>
  <rdf:RDF xmlns:dc="http://purl.org/dc/elements/1.1/" xmlns:cc="http://creativecommons.org/ns#" xmlns:rdf="http://www.w3.org/1999/02/22-rdf-syntax-ns#">
   <cc:Work>
    <dc:type rdf:resource="http://purl.org/dc/dcmitype/StillImage"/>
    <dc:date>2022-03-19T13:28:00.657260</dc:date>
    <dc:format>image/svg+xml</dc:format>
    <dc:creator>
     <cc:Agent>
      <dc:title>Matplotlib v3.5.1, https://matplotlib.org/</dc:title>
     </cc:Agent>
    </dc:creator>
   </cc:Work>
  </rdf:RDF>
 </metadata>
 <defs>
  <style type="text/css">*{stroke-linejoin: round; stroke-linecap: butt}</style>
 </defs>
 <g id="figure_1">
  <g id="patch_1">
   <path d="M 0 312.30825 
L 375.02 312.30825 
L 375.02 0 
L 0 0 
L 0 312.30825 
z
" style="fill: none"/>
  </g>
  <g id="axes_1">
   <g id="patch_2">
    <path d="M 10.7 288.430125 
L 367.82 288.430125 
L 367.82 22.318125 
L 10.7 22.318125 
L 10.7 288.430125 
z
" style="fill: none"/>
   </g>
   <g id="PolyCollection_1">
    <defs>
     <path id="maadc7759dd" d="M 26.932727 -23.879189 
L 26.932727 -23.878125 
L 28.564157 -23.878125 
L 30.195587 -23.878125 
L 31.827017 -23.878125 
L 33.458447 -23.878125 
L 35.089877 -23.878125 
L 36.721307 -23.878125 
L 38.352736 -23.878125 
L 39.984166 -23.878125 
L 41.615596 -23.878125 
L 43.247026 -23.878125 
L 44.878456 -23.878125 
L 46.509886 -23.878125 
L 48.141316 -23.878125 
L 49.772746 -23.878125 
L 51.404175 -23.878125 
L 53.035605 -23.878125 
L 54.667035 -23.878125 
L 56.298465 -23.878125 
L 57.929895 -23.878125 
L 59.561325 -23.878125 
L 61.192755 -23.878125 
L 62.824185 -23.878125 
L 64.455614 -23.878125 
L 66.087044 -23.878125 
L 67.718474 -23.878125 
L 69.349904 -23.878125 
L 70.981334 -23.878125 
L 72.612764 -23.878125 
L 74.244194 -23.878125 
L 75.875624 -23.878125 
L 77.507053 -23.878125 
L 79.138483 -23.878125 
L 80.769913 -23.878125 
L 82.401343 -23.878125 
L 84.032773 -23.878125 
L 85.664203 -23.878125 
L 87.295633 -23.878125 
L 88.927063 -23.878125 
L 90.558492 -23.878125 
L 92.189922 -23.878125 
L 93.821352 -23.878125 
L 95.452782 -23.878125 
L 97.084212 -23.878125 
L 98.715642 -23.878125 
L 100.347072 -23.878125 
L 101.978502 -23.878125 
L 103.609931 -23.878125 
L 105.241361 -23.878125 
L 106.872791 -23.878125 
L 108.504221 -23.878125 
L 110.135651 -23.878125 
L 111.767081 -23.878125 
L 113.398511 -23.878125 
L 115.029941 -23.878125 
L 116.66137 -23.878125 
L 118.2928 -23.878125 
L 119.92423 -23.878125 
L 121.55566 -23.878125 
L 123.18709 -23.878125 
L 124.81852 -23.878125 
L 126.44995 -23.878125 
L 128.08138 -23.878125 
L 129.71281 -23.878125 
L 131.344239 -23.878125 
L 132.975669 -23.878125 
L 134.607099 -23.878125 
L 136.238529 -23.878125 
L 137.869959 -23.878125 
L 139.501389 -23.878125 
L 141.132819 -23.878125 
L 142.764249 -23.878125 
L 144.395678 -23.878125 
L 146.027108 -23.878125 
L 147.658538 -23.878125 
L 149.289968 -23.878125 
L 150.921398 -23.878125 
L 152.552828 -23.878125 
L 154.184258 -23.878125 
L 155.815688 -23.878125 
L 157.447117 -23.878125 
L 159.078547 -23.878125 
L 160.709977 -23.878125 
L 162.341407 -23.878125 
L 163.972837 -23.878125 
L 165.604267 -23.878125 
L 167.235697 -23.878125 
L 168.867127 -23.878125 
L 170.498556 -23.878125 
L 172.129986 -23.878125 
L 173.761416 -23.878125 
L 175.392846 -23.878125 
L 177.024276 -23.878125 
L 178.655706 -23.878125 
L 180.287136 -23.878125 
L 181.918566 -23.878125 
L 183.549995 -23.878125 
L 185.181425 -23.878125 
L 186.812855 -23.878125 
L 188.444285 -23.878125 
L 190.075715 -23.878125 
L 191.707145 -23.878125 
L 193.338575 -23.878125 
L 194.970005 -23.878125 
L 196.601434 -23.878125 
L 198.232864 -23.878125 
L 199.864294 -23.878125 
L 201.495724 -23.878125 
L 203.127154 -23.878125 
L 204.758584 -23.878125 
L 206.390014 -23.878125 
L 208.021444 -23.878125 
L 209.652873 -23.878125 
L 211.284303 -23.878125 
L 212.915733 -23.878125 
L 214.547163 -23.878125 
L 216.178593 -23.878125 
L 217.810023 -23.878125 
L 219.441453 -23.878125 
L 221.072883 -23.878125 
L 222.704312 -23.878125 
L 224.335742 -23.878125 
L 225.967172 -23.878125 
L 227.598602 -23.878125 
L 229.230032 -23.878125 
L 230.861462 -23.878125 
L 232.492892 -23.878125 
L 234.124322 -23.878125 
L 235.755751 -23.878125 
L 237.387181 -23.878125 
L 239.018611 -23.878125 
L 240.650041 -23.878125 
L 242.281471 -23.878125 
L 243.912901 -23.878125 
L 245.544331 -23.878125 
L 247.175761 -23.878125 
L 248.80719 -23.878125 
L 250.43862 -23.878125 
L 252.07005 -23.878125 
L 253.70148 -23.878125 
L 255.33291 -23.878125 
L 256.96434 -23.878125 
L 258.59577 -23.878125 
L 260.2272 -23.878125 
L 261.85863 -23.878125 
L 263.490059 -23.878125 
L 265.121489 -23.878125 
L 266.752919 -23.878125 
L 268.384349 -23.878125 
L 270.015779 -23.878125 
L 271.647209 -23.878125 
L 273.278639 -23.878125 
L 274.910069 -23.878125 
L 276.541498 -23.878125 
L 278.172928 -23.878125 
L 279.804358 -23.878125 
L 281.435788 -23.878125 
L 283.067218 -23.878125 
L 284.698648 -23.878125 
L 286.330078 -23.878125 
L 287.961508 -23.878125 
L 289.592937 -23.878125 
L 291.224367 -23.878125 
L 292.855797 -23.878125 
L 294.487227 -23.878125 
L 296.118657 -23.878125 
L 297.750087 -23.878125 
L 299.381517 -23.878125 
L 301.012947 -23.878125 
L 302.644376 -23.878125 
L 304.275806 -23.878125 
L 305.907236 -23.878125 
L 307.538666 -23.878125 
L 309.170096 -23.878125 
L 310.801526 -23.878125 
L 312.432956 -23.878125 
L 314.064386 -23.878125 
L 315.695815 -23.878125 
L 317.327245 -23.878125 
L 318.958675 -23.878125 
L 320.590105 -23.878125 
L 322.221535 -23.878125 
L 323.852965 -23.878125 
L 325.484395 -23.878125 
L 327.115825 -23.878125 
L 328.747254 -23.878125 
L 330.378684 -23.878125 
L 332.010114 -23.878125 
L 333.641544 -23.878125 
L 335.272974 -23.878125 
L 336.904404 -23.878125 
L 338.535834 -23.878125 
L 340.167264 -23.878125 
L 341.798693 -23.878125 
L 343.430123 -23.878125 
L 345.061553 -23.878125 
L 346.692983 -23.878125 
L 348.324413 -23.878125 
L 349.955843 -23.878125 
L 351.587273 -23.878125 
L 351.587273 -23.878405 
L 351.587273 -23.878405 
L 349.955843 -23.879063 
L 348.324413 -23.880746 
L 346.692983 -23.884267 
L 345.061553 -23.890336 
L 343.430123 -23.899108 
L 341.798693 -23.910211 
L 340.167264 -23.923354 
L 338.535834 -23.938523 
L 336.904404 -23.955134 
L 335.272974 -23.971714 
L 333.641544 -23.988068 
L 332.010114 -24.007708 
L 330.378684 -24.035617 
L 328.747254 -24.071967 
L 327.115825 -24.109964 
L 325.484395 -24.142753 
L 323.852965 -24.171807 
L 322.221535 -24.205488 
L 320.590105 -24.24913 
L 318.958675 -24.300379 
L 317.327245 -24.357527 
L 315.695815 -24.432092 
L 314.064386 -24.551254 
L 312.432956 -24.744683 
L 310.801526 -25.021614 
L 309.170096 -25.351838 
L 307.538666 -25.66833 
L 305.907236 -25.900632 
L 304.275806 -26.023475 
L 302.644376 -26.084719 
L 301.012947 -26.18716 
L 299.381517 -26.434698 
L 297.750087 -26.878019 
L 296.118657 -27.488423 
L 294.487227 -28.170292 
L 292.855797 -28.809444 
L 291.224367 -29.335339 
L 289.592937 -29.757193 
L 287.961508 -30.152691 
L 286.330078 -30.632243 
L 284.698648 -31.309769 
L 283.067218 -32.277137 
L 281.435788 -33.572262 
L 279.804358 -35.166215 
L 278.172928 -36.997883 
L 276.541498 -39.028511 
L 274.910069 -41.25484 
L 273.278639 -43.666261 
L 271.647209 -46.198272 
L 270.015779 -48.737098 
L 268.384349 -51.172218 
L 266.752919 -53.452265 
L 265.121489 -55.619763 
L 263.490059 -57.8253 
L 261.85863 -60.298326 
L 260.2272 -63.247772 
L 258.59577 -66.746343 
L 256.96434 -70.711709 
L 255.33291 -75.009756 
L 253.70148 -79.559935 
L 252.07005 -84.323712 
L 250.43862 -89.215478 
L 248.80719 -94.084905 
L 247.175761 -98.840311 
L 245.544331 -103.603254 
L 243.912901 -108.700047 
L 242.281471 -114.424049 
L 240.650041 -120.756356 
L 239.018611 -127.326241 
L 237.387181 -133.663901 
L 235.755751 -139.503507 
L 234.124322 -144.894636 
L 232.492892 -150.113108 
L 230.861462 -155.494322 
L 229.230032 -161.269682 
L 227.598602 -167.456916 
L 225.967172 -173.883609 
L 224.335742 -180.362885 
L 222.704312 -186.869682 
L 221.072883 -193.51026 
L 219.441453 -200.289597 
L 217.810023 -206.940812 
L 216.178593 -213.046233 
L 214.547163 -218.374439 
L 212.915733 -223.124478 
L 211.284303 -227.830693 
L 209.652873 -232.969733 
L 208.021444 -238.586967 
L 206.390014 -244.27194 
L 204.758584 -249.507514 
L 203.127154 -254.066288 
L 201.495724 -258.100807 
L 199.864294 -261.908862 
L 198.232864 -265.663254 
L 196.601434 -269.328452 
L 194.970005 -272.702883 
L 193.338575 -275.444355 
L 191.707145 -277.108221 
L 190.075715 -277.318125 
L 188.444285 -276.037221 
L 186.812855 -273.724506 
L 185.181425 -271.190777 
L 183.549995 -269.206374 
L 181.918566 -268.123802 
L 180.287136 -267.752214 
L 178.655706 -267.513276 
L 177.024276 -266.736129 
L 175.392846 -264.909082 
L 173.761416 -261.771054 
L 172.129986 -257.272011 
L 170.498556 -251.545226 
L 168.867127 -244.947264 
L 167.235697 -238.035026 
L 165.604267 -231.370707 
L 163.972837 -225.270539 
L 162.341407 -219.700114 
L 160.709977 -214.359524 
L 159.078547 -208.861905 
L 157.447117 -202.93455 
L 155.815688 -196.587934 
L 154.184258 -190.125354 
L 152.552828 -183.91256 
L 150.921398 -178.063541 
L 149.289968 -172.334034 
L 147.658538 -166.331517 
L 146.027108 -159.846248 
L 144.395678 -153.011553 
L 142.764249 -146.178273 
L 141.132819 -139.637353 
L 139.501389 -133.432835 
L 137.869959 -127.411501 
L 136.238529 -121.435894 
L 134.607099 -115.53109 
L 132.975669 -109.822194 
L 131.344239 -104.376679 
L 129.71281 -99.167002 
L 128.08138 -94.176343 
L 126.44995 -89.47258 
L 124.81852 -85.149493 
L 123.18709 -81.227412 
L 121.55566 -77.628118 
L 119.92423 -74.21788 
L 118.2928 -70.860292 
L 116.66137 -67.464948 
L 115.029941 -64.036754 
L 113.398511 -60.698543 
L 111.767081 -57.647629 
L 110.135651 -55.047101 
L 108.504221 -52.913989 
L 106.872791 -51.091171 
L 105.241361 -49.335714 
L 103.609931 -47.463138 
L 101.978502 -45.448506 
L 100.347072 -43.427101 
L 98.715642 -41.603051 
L 97.084212 -40.120613 
L 95.452782 -38.97388 
L 93.821352 -38.012636 
L 92.189922 -37.037349 
L 90.558492 -35.910432 
L 88.927063 -34.610372 
L 87.295633 -33.215255 
L 85.664203 -31.849293 
L 84.032773 -30.626463 
L 82.401343 -29.612698 
L 80.769913 -28.818604 
L 79.138483 -28.214592 
L 77.507053 -27.746649 
L 75.875624 -27.34736 
L 74.244194 -26.954928 
L 72.612764 -26.53996 
L 70.981334 -26.119026 
L 69.349904 -25.740105 
L 67.718474 -25.449177 
L 66.087044 -25.2611 
L 64.455614 -25.152253 
L 62.824185 -25.076091 
L 61.192755 -24.988583 
L 59.561325 -24.867239 
L 57.929895 -24.715095 
L 56.298465 -24.551982 
L 54.667035 -24.401339 
L 53.035605 -24.279933 
L 51.404175 -24.193863 
L 49.772746 -24.140277 
L 48.141316 -24.111979 
L 46.509886 -24.101516 
L 44.878456 -24.102437 
L 43.247026 -24.107763 
L 41.615596 -24.108533 
L 39.984166 -24.095667 
L 38.352736 -24.064885 
L 36.721307 -24.020244 
L 35.089877 -23.972277 
L 33.458447 -23.931737 
L 31.827017 -23.904121 
L 30.195587 -23.888785 
L 28.564157 -23.881803 
L 26.932727 -23.879189 
z
" style="stroke: #35b779"/>
    </defs>
    <g clip-path="url(#p982ea26375)">
     <use xlink:href="#maadc7759dd" x="0" y="312.30825" style="fill: #35b779; fill-opacity: 0.25; stroke: #35b779"/>
    </g>
   </g>
   <g id="matplotlib.axis_1">
    <g id="xtick_1">
     <g id="line2d_1">
      <defs>
       <path id="m2fca94831a" d="M 0 0 
L 0 3.5 
" style="stroke: #666666; stroke-opacity: 0.015686; stroke-width: 0.8"/>
      </defs>
      <g>
       <use xlink:href="#m2fca94831a" x="27.277064" y="288.430125" style="fill: #666666; fill-opacity: 0.015686; stroke: #666666; stroke-opacity: 0.015686; stroke-width: 0.8"/>
      </g>
     </g>
     <g id="text_1">
      <!-- −3 -->
      <g style="fill: #666666" transform="translate(19.90597 303.028562)scale(0.1 -0.1)">
       <defs>
        <path id="DejaVuSans-2212" d="M 678 2272 
L 4684 2272 
L 4684 1741 
L 678 1741 
L 678 2272 
z
" transform="scale(0.015625)"/>
        <path id="DejaVuSans-33" d="M 2597 2516 
Q 3050 2419 3304 2112 
Q 3559 1806 3559 1356 
Q 3559 666 3084 287 
Q 2609 -91 1734 -91 
Q 1441 -91 1130 -33 
Q 819 25 488 141 
L 488 750 
Q 750 597 1062 519 
Q 1375 441 1716 441 
Q 2309 441 2620 675 
Q 2931 909 2931 1356 
Q 2931 1769 2642 2001 
Q 2353 2234 1838 2234 
L 1294 2234 
L 1294 2753 
L 1863 2753 
Q 2328 2753 2575 2939 
Q 2822 3125 2822 3475 
Q 2822 3834 2567 4026 
Q 2313 4219 1838 4219 
Q 1578 4219 1281 4162 
Q 984 4106 628 3988 
L 628 4550 
Q 988 4650 1302 4700 
Q 1616 4750 1894 4750 
Q 2613 4750 3031 4423 
Q 3450 4097 3450 3541 
Q 3450 3153 3228 2886 
Q 3006 2619 2597 2516 
z
" transform="scale(0.015625)"/>
       </defs>
       <use xlink:href="#DejaVuSans-2212"/>
       <use xlink:href="#DejaVuSans-33" x="83.789062"/>
      </g>
     </g>
    </g>
    <g id="xtick_2">
     <g id="line2d_2">
      <g>
       <use xlink:href="#m2fca94831a" x="80.669798" y="288.430125" style="fill: #666666; fill-opacity: 0.015686; stroke: #666666; stroke-opacity: 0.015686; stroke-width: 0.8"/>
      </g>
     </g>
     <g id="text_2">
      <!-- −2 -->
      <g style="fill: #666666" transform="translate(73.298704 303.028562)scale(0.1 -0.1)">
       <defs>
        <path id="DejaVuSans-32" d="M 1228 531 
L 3431 531 
L 3431 0 
L 469 0 
L 469 531 
Q 828 903 1448 1529 
Q 2069 2156 2228 2338 
Q 2531 2678 2651 2914 
Q 2772 3150 2772 3378 
Q 2772 3750 2511 3984 
Q 2250 4219 1831 4219 
Q 1534 4219 1204 4116 
Q 875 4013 500 3803 
L 500 4441 
Q 881 4594 1212 4672 
Q 1544 4750 1819 4750 
Q 2544 4750 2975 4387 
Q 3406 4025 3406 3419 
Q 3406 3131 3298 2873 
Q 3191 2616 2906 2266 
Q 2828 2175 2409 1742 
Q 1991 1309 1228 531 
z
" transform="scale(0.015625)"/>
       </defs>
       <use xlink:href="#DejaVuSans-2212"/>
       <use xlink:href="#DejaVuSans-32" x="83.789062"/>
      </g>
     </g>
    </g>
    <g id="xtick_3">
     <g id="line2d_3">
      <g>
       <use xlink:href="#m2fca94831a" x="134.062531" y="288.430125" style="fill: #666666; fill-opacity: 0.015686; stroke: #666666; stroke-opacity: 0.015686; stroke-width: 0.8"/>
      </g>
     </g>
     <g id="text_3">
      <!-- −1 -->
      <g style="fill: #666666" transform="translate(126.691438 303.028562)scale(0.1 -0.1)">
       <defs>
        <path id="DejaVuSans-31" d="M 794 531 
L 1825 531 
L 1825 4091 
L 703 3866 
L 703 4441 
L 1819 4666 
L 2450 4666 
L 2450 531 
L 3481 531 
L 3481 0 
L 794 0 
L 794 531 
z
" transform="scale(0.015625)"/>
       </defs>
       <use xlink:href="#DejaVuSans-2212"/>
       <use xlink:href="#DejaVuSans-31" x="83.789062"/>
      </g>
     </g>
    </g>
    <g id="xtick_4">
     <g id="line2d_4">
      <g>
       <use xlink:href="#m2fca94831a" x="187.455265" y="288.430125" style="fill: #666666; fill-opacity: 0.015686; stroke: #666666; stroke-opacity: 0.015686; stroke-width: 0.8"/>
      </g>
     </g>
     <g id="text_4">
      <!-- 0 -->
      <g style="fill: #666666" transform="translate(184.274015 303.028562)scale(0.1 -0.1)">
       <defs>
        <path id="DejaVuSans-30" d="M 2034 4250 
Q 1547 4250 1301 3770 
Q 1056 3291 1056 2328 
Q 1056 1369 1301 889 
Q 1547 409 2034 409 
Q 2525 409 2770 889 
Q 3016 1369 3016 2328 
Q 3016 3291 2770 3770 
Q 2525 4250 2034 4250 
z
M 2034 4750 
Q 2819 4750 3233 4129 
Q 3647 3509 3647 2328 
Q 3647 1150 3233 529 
Q 2819 -91 2034 -91 
Q 1250 -91 836 529 
Q 422 1150 422 2328 
Q 422 3509 836 4129 
Q 1250 4750 2034 4750 
z
" transform="scale(0.015625)"/>
       </defs>
       <use xlink:href="#DejaVuSans-30"/>
      </g>
     </g>
    </g>
    <g id="xtick_5">
     <g id="line2d_5">
      <g>
       <use xlink:href="#m2fca94831a" x="240.847999" y="288.430125" style="fill: #666666; fill-opacity: 0.015686; stroke: #666666; stroke-opacity: 0.015686; stroke-width: 0.8"/>
      </g>
     </g>
     <g id="text_5">
      <!-- 1 -->
      <g style="fill: #666666" transform="translate(237.666749 303.028562)scale(0.1 -0.1)">
       <use xlink:href="#DejaVuSans-31"/>
      </g>
     </g>
    </g>
    <g id="xtick_6">
     <g id="line2d_6">
      <g>
       <use xlink:href="#m2fca94831a" x="294.240733" y="288.430125" style="fill: #666666; fill-opacity: 0.015686; stroke: #666666; stroke-opacity: 0.015686; stroke-width: 0.8"/>
      </g>
     </g>
     <g id="text_6">
      <!-- 2 -->
      <g style="fill: #666666" transform="translate(291.059483 303.028562)scale(0.1 -0.1)">
       <use xlink:href="#DejaVuSans-32"/>
      </g>
     </g>
    </g>
    <g id="xtick_7">
     <g id="line2d_7">
      <g>
       <use xlink:href="#m2fca94831a" x="347.633467" y="288.430125" style="fill: #666666; fill-opacity: 0.015686; stroke: #666666; stroke-opacity: 0.015686; stroke-width: 0.8"/>
      </g>
     </g>
     <g id="text_7">
      <!-- 3 -->
      <g style="fill: #666666" transform="translate(344.452217 303.028562)scale(0.1 -0.1)">
       <use xlink:href="#DejaVuSans-33"/>
      </g>
     </g>
    </g>
   </g>
   <g id="matplotlib.axis_2"/>
   <g id="patch_3">
    <path d="M 10.7 288.430125 
L 10.7 22.318125 
" style="fill: none"/>
   </g>
   <g id="patch_4">
    <path d="M 367.82 288.430125 
L 367.82 22.318125 
" style="fill: none"/>
   </g>
   <g id="patch_5">
    <path d="M 10.7 288.430125 
L 367.82 288.430125 
" style="fill: none"/>
   </g>
   <g id="patch_6">
    <path d="M 10.7 22.318125 
L 367.82 22.318125 
" style="fill: none"/>
   </g>
   <g id="text_8">
    <!-- $N = $100000 -->
    <g style="fill: #666666" transform="translate(154.46 16.318125)scale(0.12 -0.12)">
     <defs>
      <path id="DejaVuSans-Oblique-4e" d="M 1081 4666 
L 1931 4666 
L 3219 666 
L 4000 4666 
L 4616 4666 
L 3706 0 
L 2853 0 
L 1569 4025 
L 788 0 
L 172 0 
L 1081 4666 
z
" transform="scale(0.015625)"/>
      <path id="DejaVuSans-3d" d="M 678 2906 
L 4684 2906 
L 4684 2381 
L 678 2381 
L 678 2906 
z
M 678 1631 
L 4684 1631 
L 4684 1100 
L 678 1100 
L 678 1631 
z
" transform="scale(0.015625)"/>
     </defs>
     <use xlink:href="#DejaVuSans-Oblique-4e" transform="translate(0 0.78125)"/>
     <use xlink:href="#DejaVuSans-3d" transform="translate(94.287109 0.78125)"/>
     <use xlink:href="#DejaVuSans-31" transform="translate(197.558594 0.78125)"/>
     <use xlink:href="#DejaVuSans-30" transform="translate(261.181641 0.78125)"/>
     <use xlink:href="#DejaVuSans-30" transform="translate(324.804688 0.78125)"/>
     <use xlink:href="#DejaVuSans-30" transform="translate(388.427734 0.78125)"/>
     <use xlink:href="#DejaVuSans-30" transform="translate(452.050781 0.78125)"/>
     <use xlink:href="#DejaVuSans-30" transform="translate(515.673828 0.78125)"/>
    </g>
   </g>
  </g>
 </g>
 <defs>
  <clipPath id="p982ea26375">
   <rect x="10.7" y="22.318125" width="357.12" height="266.112"/>
  </clipPath>
 </defs>
</svg>
