<?xml version="1.0" encoding="utf-8" standalone="no"?>
<!DOCTYPE svg PUBLIC "-//W3C//DTD SVG 1.1//EN"
  "http://www.w3.org/Graphics/SVG/1.1/DTD/svg11.dtd">
<svg xmlns:xlink="http://www.w3.org/1999/xlink" width="469.19952pt" height="353.99952pt" viewBox="0 0 469.19952 353.99952" xmlns="http://www.w3.org/2000/svg" version="1.1">
 <metadata>
  <rdf:RDF xmlns:dc="http://purl.org/dc/elements/1.1/" xmlns:cc="http://creativecommons.org/ns#" xmlns:rdf="http://www.w3.org/1999/02/22-rdf-syntax-ns#">
   <cc:Work>
    <dc:type rdf:resource="http://purl.org/dc/dcmitype/StillImage"/>
    <dc:date>2022-03-19T20:54:20.403362</dc:date>
    <dc:format>image/svg+xml</dc:format>
    <dc:creator>
     <cc:Agent>
      <dc:title>Matplotlib v3.5.1, https://matplotlib.org/</dc:title>
     </cc:Agent>
    </dc:creator>
   </cc:Work>
  </rdf:RDF>
 </metadata>
 <defs>
  <style type="text/css">*{stroke-linejoin: round; stroke-linecap: butt}</style>
 </defs>
 <g id="figure_1">
  <g id="patch_1">
   <path d="M 0 353.99952 
L 469.19952 353.99952 
L 469.19952 0 
L 0 0 
L 0 353.99952 
z
" style="fill: none"/>
  </g>
  <g id="axes_1">
   <g id="patch_2">
    <path d="M 16.2 337.79952 
L 461.99952 337.79952 
L 461.99952 7.2 
L 16.2 7.2 
L 16.2 337.79952 
z
" style="fill: none"/>
   </g>
   <g id="PolyCollection_1">
    <defs>
     <path id="m1ffcadc87c" d="M 36.463615 -16.200187 
L 36.463615 -16.2 
L 38.500159 -16.2 
L 40.536703 -16.2 
L 42.573247 -16.2 
L 44.609791 -16.2 
L 46.646335 -16.2 
L 48.68288 -16.2 
L 50.719424 -16.2 
L 52.755968 -16.2 
L 54.792512 -16.2 
L 56.829056 -16.2 
L 58.8656 -16.2 
L 60.902145 -16.2 
L 62.938689 -16.2 
L 64.975233 -16.2 
L 67.011777 -16.2 
L 69.048321 -16.2 
L 71.084866 -16.2 
L 73.12141 -16.2 
L 75.157954 -16.2 
L 77.194498 -16.2 
L 79.231042 -16.2 
L 81.267586 -16.2 
L 83.304131 -16.2 
L 85.340675 -16.2 
L 87.377219 -16.2 
L 89.413763 -16.2 
L 91.450307 -16.2 
L 93.486851 -16.2 
L 95.523396 -16.2 
L 97.55994 -16.2 
L 99.596484 -16.2 
L 101.633028 -16.2 
L 103.669572 -16.2 
L 105.706117 -16.2 
L 107.742661 -16.2 
L 109.779205 -16.2 
L 111.815749 -16.2 
L 113.852293 -16.2 
L 115.888837 -16.2 
L 117.925382 -16.2 
L 119.961926 -16.2 
L 121.99847 -16.2 
L 124.035014 -16.2 
L 126.071558 -16.2 
L 128.108102 -16.2 
L 130.144647 -16.2 
L 132.181191 -16.2 
L 134.217735 -16.2 
L 136.254279 -16.2 
L 138.290823 -16.2 
L 140.327367 -16.2 
L 142.363912 -16.2 
L 144.400456 -16.2 
L 146.437 -16.2 
L 148.473544 -16.2 
L 150.510088 -16.2 
L 152.546633 -16.2 
L 154.583177 -16.2 
L 156.619721 -16.2 
L 158.656265 -16.2 
L 160.692809 -16.2 
L 162.729353 -16.2 
L 164.765898 -16.2 
L 166.802442 -16.2 
L 168.838986 -16.2 
L 170.87553 -16.2 
L 172.912074 -16.2 
L 174.948618 -16.2 
L 176.985163 -16.2 
L 179.021707 -16.2 
L 181.058251 -16.2 
L 183.094795 -16.2 
L 185.131339 -16.2 
L 187.167884 -16.2 
L 189.204428 -16.2 
L 191.240972 -16.2 
L 193.277516 -16.2 
L 195.31406 -16.2 
L 197.350604 -16.2 
L 199.387149 -16.2 
L 201.423693 -16.2 
L 203.460237 -16.2 
L 205.496781 -16.2 
L 207.533325 -16.2 
L 209.569869 -16.2 
L 211.606414 -16.2 
L 213.642958 -16.2 
L 215.679502 -16.2 
L 217.716046 -16.2 
L 219.75259 -16.2 
L 221.789135 -16.2 
L 223.825679 -16.2 
L 225.862223 -16.2 
L 227.898767 -16.2 
L 229.935311 -16.2 
L 231.971855 -16.2 
L 234.0084 -16.2 
L 236.044944 -16.2 
L 238.081488 -16.2 
L 240.118032 -16.2 
L 242.154576 -16.2 
L 244.19112 -16.2 
L 246.227665 -16.2 
L 248.264209 -16.2 
L 250.300753 -16.2 
L 252.337297 -16.2 
L 254.373841 -16.2 
L 256.410385 -16.2 
L 258.44693 -16.2 
L 260.483474 -16.2 
L 262.520018 -16.2 
L 264.556562 -16.2 
L 266.593106 -16.2 
L 268.629651 -16.2 
L 270.666195 -16.2 
L 272.702739 -16.2 
L 274.739283 -16.2 
L 276.775827 -16.2 
L 278.812371 -16.2 
L 280.848916 -16.2 
L 282.88546 -16.2 
L 284.922004 -16.2 
L 286.958548 -16.2 
L 288.995092 -16.2 
L 291.031636 -16.2 
L 293.068181 -16.2 
L 295.104725 -16.2 
L 297.141269 -16.2 
L 299.177813 -16.2 
L 301.214357 -16.2 
L 303.250902 -16.2 
L 305.287446 -16.2 
L 307.32399 -16.2 
L 309.360534 -16.2 
L 311.397078 -16.2 
L 313.433622 -16.2 
L 315.470167 -16.2 
L 317.506711 -16.2 
L 319.543255 -16.2 
L 321.579799 -16.2 
L 323.616343 -16.2 
L 325.652887 -16.2 
L 327.689432 -16.2 
L 329.725976 -16.2 
L 331.76252 -16.2 
L 333.799064 -16.2 
L 335.835608 -16.2 
L 337.872153 -16.2 
L 339.908697 -16.2 
L 341.945241 -16.2 
L 343.981785 -16.2 
L 346.018329 -16.2 
L 348.054873 -16.2 
L 350.091418 -16.2 
L 352.127962 -16.2 
L 354.164506 -16.2 
L 356.20105 -16.2 
L 358.237594 -16.2 
L 360.274138 -16.2 
L 362.310683 -16.2 
L 364.347227 -16.2 
L 366.383771 -16.2 
L 368.420315 -16.2 
L 370.456859 -16.2 
L 372.493403 -16.2 
L 374.529948 -16.2 
L 376.566492 -16.2 
L 378.603036 -16.2 
L 380.63958 -16.2 
L 382.676124 -16.2 
L 384.712669 -16.2 
L 386.749213 -16.2 
L 388.785757 -16.2 
L 390.822301 -16.2 
L 392.858845 -16.2 
L 394.895389 -16.2 
L 396.931934 -16.2 
L 398.968478 -16.2 
L 401.005022 -16.2 
L 403.041566 -16.2 
L 405.07811 -16.2 
L 407.114654 -16.2 
L 409.151199 -16.2 
L 411.187743 -16.2 
L 413.224287 -16.2 
L 415.260831 -16.2 
L 417.297375 -16.2 
L 419.33392 -16.2 
L 421.370464 -16.2 
L 423.407008 -16.2 
L 425.443552 -16.2 
L 427.480096 -16.2 
L 429.51664 -16.2 
L 431.553185 -16.2 
L 433.589729 -16.2 
L 435.626273 -16.2 
L 437.662817 -16.2 
L 439.699361 -16.2 
L 441.735905 -16.2 
L 441.735905 -16.200055 
L 441.735905 -16.200055 
L 439.699361 -16.200403 
L 437.662817 -16.201656 
L 435.626273 -16.203823 
L 433.589729 -16.204962 
L 431.553185 -16.203677 
L 429.51664 -16.202105 
L 427.480096 -16.203934 
L 425.443552 -16.212416 
L 423.407008 -16.226841 
L 421.370464 -16.240522 
L 419.33392 -16.249301 
L 417.297375 -16.254175 
L 415.260831 -16.254698 
L 413.224287 -16.250505 
L 411.187743 -16.24819 
L 409.151199 -16.257086 
L 407.114654 -16.278306 
L 405.07811 -16.306034 
L 403.041566 -16.33563 
L 401.005022 -16.376719 
L 398.968478 -16.453981 
L 396.931934 -16.570192 
L 394.895389 -16.675691 
L 392.858845 -16.724588 
L 390.822301 -16.730323 
L 388.785757 -16.749831 
L 386.749213 -16.843534 
L 384.712669 -17.01465 
L 382.676124 -17.199094 
L 380.63958 -17.352446 
L 378.603036 -17.528069 
L 376.566492 -17.828693 
L 374.529948 -18.258574 
L 372.493403 -18.713116 
L 370.456859 -19.162111 
L 368.420315 -19.695212 
L 366.383771 -20.320928 
L 364.347227 -20.911166 
L 362.310683 -21.471508 
L 360.274138 -22.159334 
L 358.237594 -22.958305 
L 356.20105 -23.793527 
L 354.164506 -24.794533 
L 352.127962 -26.044489 
L 350.091418 -27.523351 
L 348.054873 -29.203621 
L 346.018329 -30.86918 
L 343.981785 -32.376779 
L 341.945241 -33.97478 
L 339.908697 -36.058061 
L 337.872153 -38.785652 
L 335.835608 -41.897635 
L 333.799064 -45.00672 
L 331.76252 -48.055769 
L 329.725976 -51.287429 
L 327.689432 -54.711017 
L 325.652887 -58.103173 
L 323.616343 -61.715636 
L 321.579799 -66.00247 
L 319.543255 -70.852793 
L 317.506711 -75.988031 
L 315.470167 -81.544361 
L 313.433622 -87.83966 
L 311.397078 -94.667909 
L 309.360534 -101.410411 
L 307.32399 -107.839817 
L 305.287446 -114.254616 
L 303.250902 -121.139653 
L 301.214357 -128.619429 
L 299.177813 -136.205954 
L 297.141269 -143.74379 
L 295.104725 -151.659983 
L 293.068181 -160.069712 
L 291.031636 -168.924632 
L 288.995092 -178.388602 
L 286.958548 -188.036887 
L 284.922004 -197.020806 
L 282.88546 -205.372259 
L 280.848916 -213.843597 
L 278.812371 -222.604865 
L 276.775827 -231.175191 
L 274.739283 -239.685454 
L 272.702739 -248.488563 
L 270.666195 -257.129833 
L 268.629651 -264.965325 
L 266.593106 -271.941727 
L 264.556562 -278.603199 
L 262.520018 -285.567088 
L 260.483474 -292.910566 
L 258.44693 -299.758986 
L 256.410385 -305.383826 
L 254.373841 -310.37174 
L 252.337297 -315.155661 
L 250.300753 -319.438565 
L 248.264209 -323.215785 
L 246.227665 -326.458398 
L 244.19112 -328.673207 
L 242.154576 -329.959324 
L 240.118032 -330.915242 
L 238.081488 -331.056686 
L 236.044944 -329.622109 
L 234.0084 -327.157611 
L 231.971855 -324.23509 
L 229.935311 -320.607024 
L 227.898767 -316.24572 
L 225.862223 -311.348195 
L 223.825679 -305.846588 
L 221.789135 -299.69289 
L 219.75259 -293.126536 
L 217.716046 -286.351701 
L 215.679502 -279.382646 
L 213.642958 -272.405073 
L 211.606414 -265.754388 
L 209.569869 -258.912633 
L 207.533325 -250.85089 
L 205.496781 -241.803759 
L 203.460237 -232.729469 
L 201.423693 -223.739077 
L 199.387149 -214.45435 
L 197.350604 -204.903946 
L 195.31406 -195.487662 
L 193.277516 -186.474153 
L 191.240972 -178.006511 
L 189.204428 -169.729305 
L 187.167884 -160.95839 
L 185.131339 -151.79309 
L 183.094795 -142.96154 
L 181.058251 -134.757541 
L 179.021707 -127.028293 
L 176.985163 -119.653026 
L 174.948618 -112.501371 
L 172.912074 -105.499916 
L 170.87553 -98.766872 
L 168.838986 -92.527118 
L 166.802442 -86.897267 
L 164.765898 -81.696516 
L 162.729353 -76.810491 
L 160.692809 -72.020706 
L 158.656265 -67.002513 
L 156.619721 -62.079908 
L 154.583177 -57.79092 
L 152.546633 -53.964103 
L 150.510088 -50.207299 
L 148.473544 -46.539013 
L 146.437 -43.192704 
L 144.400456 -40.41636 
L 142.363912 -38.207601 
L 140.327367 -36.229995 
L 138.290823 -34.269036 
L 136.254279 -32.33944 
L 134.217735 -30.462292 
L 132.181191 -28.733936 
L 130.144647 -27.240729 
L 128.108102 -25.945022 
L 126.071558 -24.766789 
L 124.035014 -23.704113 
L 121.99847 -22.809738 
L 119.961926 -22.01173 
L 117.925382 -21.245592 
L 115.888837 -20.587591 
L 113.852293 -20.068348 
L 111.815749 -19.609512 
L 109.779205 -19.151144 
L 107.742661 -18.718602 
L 105.706117 -18.346844 
L 103.669572 -18.034953 
L 101.633028 -17.770657 
L 99.596484 -17.540259 
L 97.55994 -17.32653 
L 95.523396 -17.122721 
L 93.486851 -16.948652 
L 91.450307 -16.816113 
L 89.413763 -16.714046 
L 87.377219 -16.636587 
L 85.340675 -16.581646 
L 83.304131 -16.535356 
L 81.267586 -16.489109 
L 79.231042 -16.447328 
L 77.194498 -16.404646 
L 75.157954 -16.360956 
L 73.12141 -16.326162 
L 71.084866 -16.30608 
L 69.048321 -16.294477 
L 67.011777 -16.278716 
L 64.975233 -16.259668 
L 62.938689 -16.248291 
L 60.902145 -16.246695 
L 58.8656 -16.245299 
L 56.829056 -16.23792 
L 54.792512 -16.229076 
L 52.755968 -16.222874 
L 50.719424 -16.220858 
L 48.68288 -16.226444 
L 46.646335 -16.234994 
L 44.609791 -16.233481 
L 42.573247 -16.220159 
L 40.536703 -16.207269 
L 38.500159 -16.201533 
L 36.463615 -16.200187 
z
" style="stroke: #999999; stroke-width: 2"/>
    </defs>
    <g clip-path="url(#p9e0af6e849)">
     <use xlink:href="#m1ffcadc87c" x="0" y="353.99952" style="fill: #999999; fill-opacity: 0.25; stroke: #999999; stroke-width: 2"/>
    </g>
   </g>
   <g id="PolyCollection_2">
    <g clip-path="url(#p9e0af6e849)">
     <use xlink:href="#m1ffcadc87c" x="0" y="353.99952" style="fill: #999999; fill-opacity: 0.25; stroke: #999999; stroke-width: 2"/>
    </g>
   </g>
   <g id="PolyCollection_3">
    <defs>
     <path id="mf2af614a06" d="M 36.463615 -16.200187 
L 36.463615 -16.2 
L 38.500159 -16.2 
L 40.536703 -16.2 
L 42.573247 -16.2 
L 44.609791 -16.2 
L 46.646335 -16.2 
L 48.68288 -16.2 
L 50.719424 -16.2 
L 52.755968 -16.2 
L 54.792512 -16.2 
L 56.829056 -16.2 
L 58.8656 -16.2 
L 60.902145 -16.2 
L 62.938689 -16.2 
L 64.975233 -16.2 
L 67.011777 -16.2 
L 69.048321 -16.2 
L 71.084866 -16.2 
L 73.12141 -16.2 
L 75.157954 -16.2 
L 77.194498 -16.2 
L 79.231042 -16.2 
L 81.267586 -16.2 
L 83.304131 -16.2 
L 85.340675 -16.2 
L 87.377219 -16.2 
L 89.413763 -16.2 
L 91.450307 -16.2 
L 93.486851 -16.2 
L 95.523396 -16.2 
L 97.55994 -16.2 
L 99.596484 -16.2 
L 101.633028 -16.2 
L 103.669572 -16.2 
L 105.706117 -16.2 
L 107.742661 -16.2 
L 109.779205 -16.2 
L 111.815749 -16.2 
L 113.852293 -16.2 
L 115.888837 -16.2 
L 117.925382 -16.2 
L 119.961926 -16.2 
L 121.99847 -16.2 
L 124.035014 -16.2 
L 126.071558 -16.2 
L 128.108102 -16.2 
L 130.144647 -16.2 
L 132.181191 -16.2 
L 134.217735 -16.2 
L 136.254279 -16.2 
L 138.290823 -16.2 
L 140.327367 -16.2 
L 142.363912 -16.2 
L 144.400456 -16.2 
L 146.437 -16.2 
L 148.473544 -16.2 
L 150.510088 -16.2 
L 152.546633 -16.2 
L 154.583177 -16.2 
L 156.619721 -16.2 
L 158.656265 -16.2 
L 160.692809 -16.2 
L 162.729353 -16.2 
L 164.765898 -16.2 
L 166.802442 -16.2 
L 168.838986 -16.2 
L 170.87553 -16.2 
L 172.912074 -16.2 
L 174.948618 -16.2 
L 176.985163 -16.2 
L 179.021707 -16.2 
L 181.058251 -16.2 
L 183.094795 -16.2 
L 185.131339 -16.2 
L 187.167884 -16.2 
L 189.204428 -16.2 
L 191.240972 -16.2 
L 193.277516 -16.2 
L 195.31406 -16.2 
L 197.350604 -16.2 
L 199.387149 -16.2 
L 201.423693 -16.2 
L 203.460237 -16.2 
L 205.496781 -16.2 
L 207.533325 -16.2 
L 209.569869 -16.2 
L 211.606414 -16.2 
L 213.642958 -16.2 
L 215.679502 -16.2 
L 217.716046 -16.2 
L 219.75259 -16.2 
L 221.789135 -16.2 
L 223.825679 -16.2 
L 225.862223 -16.2 
L 227.898767 -16.2 
L 229.935311 -16.2 
L 231.971855 -16.2 
L 234.0084 -16.2 
L 236.044944 -16.2 
L 238.081488 -16.2 
L 240.118032 -16.2 
L 242.154576 -16.2 
L 244.19112 -16.2 
L 246.227665 -16.2 
L 248.264209 -16.2 
L 250.300753 -16.2 
L 252.337297 -16.2 
L 254.373841 -16.2 
L 256.410385 -16.2 
L 258.44693 -16.2 
L 260.483474 -16.2 
L 262.520018 -16.2 
L 264.556562 -16.2 
L 266.593106 -16.2 
L 268.629651 -16.2 
L 270.666195 -16.2 
L 272.702739 -16.2 
L 274.739283 -16.2 
L 276.775827 -16.2 
L 278.812371 -16.2 
L 280.848916 -16.2 
L 282.88546 -16.2 
L 284.922004 -16.2 
L 286.958548 -16.2 
L 288.995092 -16.2 
L 291.031636 -16.2 
L 293.068181 -16.2 
L 295.104725 -16.2 
L 297.141269 -16.2 
L 299.177813 -16.2 
L 301.214357 -16.2 
L 303.250902 -16.2 
L 305.287446 -16.2 
L 307.32399 -16.2 
L 309.360534 -16.2 
L 311.397078 -16.2 
L 313.433622 -16.2 
L 315.470167 -16.2 
L 317.506711 -16.2 
L 319.543255 -16.2 
L 321.579799 -16.2 
L 323.616343 -16.2 
L 325.652887 -16.2 
L 327.689432 -16.2 
L 329.725976 -16.2 
L 331.76252 -16.2 
L 333.799064 -16.2 
L 335.835608 -16.2 
L 337.872153 -16.2 
L 339.908697 -16.2 
L 341.945241 -16.2 
L 343.981785 -16.2 
L 346.018329 -16.2 
L 348.054873 -16.2 
L 350.091418 -16.2 
L 352.127962 -16.2 
L 354.164506 -16.2 
L 356.20105 -16.2 
L 358.237594 -16.2 
L 360.274138 -16.2 
L 362.310683 -16.2 
L 364.347227 -16.2 
L 366.383771 -16.2 
L 368.420315 -16.2 
L 370.456859 -16.2 
L 372.493403 -16.2 
L 374.529948 -16.2 
L 376.566492 -16.2 
L 378.603036 -16.2 
L 380.63958 -16.2 
L 382.676124 -16.2 
L 384.712669 -16.2 
L 386.749213 -16.2 
L 388.785757 -16.2 
L 390.822301 -16.2 
L 392.858845 -16.2 
L 394.895389 -16.2 
L 396.931934 -16.2 
L 398.968478 -16.2 
L 401.005022 -16.2 
L 403.041566 -16.2 
L 405.07811 -16.2 
L 407.114654 -16.2 
L 409.151199 -16.2 
L 411.187743 -16.2 
L 413.224287 -16.2 
L 415.260831 -16.2 
L 417.297375 -16.2 
L 419.33392 -16.2 
L 421.370464 -16.2 
L 423.407008 -16.2 
L 425.443552 -16.2 
L 427.480096 -16.2 
L 429.51664 -16.2 
L 431.553185 -16.2 
L 433.589729 -16.2 
L 435.626273 -16.2 
L 437.662817 -16.2 
L 439.699361 -16.2 
L 441.735905 -16.2 
L 441.735905 -16.200055 
L 441.735905 -16.200055 
L 439.699361 -16.200403 
L 437.662817 -16.201656 
L 435.626273 -16.203823 
L 433.589729 -16.204962 
L 431.553185 -16.203677 
L 429.51664 -16.202105 
L 427.480096 -16.203934 
L 425.443552 -16.212416 
L 423.407008 -16.226841 
L 421.370464 -16.240522 
L 419.33392 -16.249301 
L 417.297375 -16.254175 
L 415.260831 -16.254698 
L 413.224287 -16.250505 
L 411.187743 -16.24819 
L 409.151199 -16.257086 
L 407.114654 -16.278306 
L 405.07811 -16.306034 
L 403.041566 -16.33563 
L 401.005022 -16.376719 
L 398.968478 -16.453981 
L 396.931934 -16.570192 
L 394.895389 -16.675691 
L 392.858845 -16.724588 
L 390.822301 -16.730323 
L 388.785757 -16.749831 
L 386.749213 -16.843534 
L 384.712669 -17.01465 
L 382.676124 -17.199094 
L 380.63958 -17.352446 
L 378.603036 -17.528069 
L 376.566492 -17.828693 
L 374.529948 -18.258574 
L 372.493403 -18.713116 
L 370.456859 -19.162111 
L 368.420315 -19.695212 
L 366.383771 -20.320928 
L 364.347227 -20.911166 
L 362.310683 -21.471508 
L 360.274138 -22.159334 
L 358.237594 -22.958305 
L 356.20105 -23.793527 
L 354.164506 -24.794533 
L 352.127962 -26.044489 
L 350.091418 -27.523351 
L 348.054873 -29.203621 
L 346.018329 -30.86918 
L 343.981785 -32.376779 
L 341.945241 -33.97478 
L 339.908697 -36.058061 
L 337.872153 -38.785652 
L 335.835608 -41.897635 
L 333.799064 -45.00672 
L 331.76252 -48.055769 
L 329.725976 -51.287429 
L 327.689432 -54.711017 
L 325.652887 -58.103173 
L 323.616343 -61.715636 
L 321.579799 -66.00247 
L 319.543255 -70.852793 
L 317.506711 -75.988031 
L 315.470167 -81.544361 
L 313.433622 -87.83966 
L 311.397078 -94.667909 
L 309.360534 -101.410411 
L 307.32399 -107.839817 
L 305.287446 -114.254616 
L 303.250902 -121.139653 
L 301.214357 -128.619429 
L 299.177813 -136.205954 
L 297.141269 -143.74379 
L 295.104725 -151.659983 
L 293.068181 -160.069712 
L 291.031636 -168.924632 
L 288.995092 -178.388602 
L 286.958548 -188.036887 
L 284.922004 -197.020806 
L 282.88546 -205.372259 
L 280.848916 -213.843597 
L 278.812371 -222.604865 
L 276.775827 -231.175191 
L 274.739283 -239.685454 
L 272.702739 -248.488563 
L 270.666195 -257.129833 
L 268.629651 -264.965325 
L 266.593106 -271.941727 
L 264.556562 -278.603199 
L 262.520018 -285.567088 
L 260.483474 -292.910566 
L 258.44693 -299.758986 
L 256.410385 -305.383826 
L 254.373841 -310.37174 
L 252.337297 -315.155661 
L 250.300753 -319.438565 
L 248.264209 -323.215785 
L 246.227665 -326.458398 
L 244.19112 -328.673207 
L 242.154576 -329.959324 
L 240.118032 -330.915242 
L 238.081488 -331.056686 
L 236.044944 -329.622109 
L 234.0084 -327.157611 
L 231.971855 -324.23509 
L 229.935311 -320.607024 
L 227.898767 -316.24572 
L 225.862223 -311.348195 
L 223.825679 -305.846588 
L 221.789135 -299.69289 
L 219.75259 -293.126536 
L 217.716046 -286.351701 
L 215.679502 -279.382646 
L 213.642958 -272.405073 
L 211.606414 -265.754388 
L 209.569869 -258.912633 
L 207.533325 -250.85089 
L 205.496781 -241.803759 
L 203.460237 -232.729469 
L 201.423693 -223.739077 
L 199.387149 -214.45435 
L 197.350604 -204.903946 
L 195.31406 -195.487662 
L 193.277516 -186.474153 
L 191.240972 -178.006511 
L 189.204428 -169.729305 
L 187.167884 -160.95839 
L 185.131339 -151.79309 
L 183.094795 -142.96154 
L 181.058251 -134.757541 
L 179.021707 -127.028293 
L 176.985163 -119.653026 
L 174.948618 -112.501371 
L 172.912074 -105.499916 
L 170.87553 -98.766872 
L 168.838986 -92.527118 
L 166.802442 -86.897267 
L 164.765898 -81.696516 
L 162.729353 -76.810491 
L 160.692809 -72.020706 
L 158.656265 -67.002513 
L 156.619721 -62.079908 
L 154.583177 -57.79092 
L 152.546633 -53.964103 
L 150.510088 -50.207299 
L 148.473544 -46.539013 
L 146.437 -43.192704 
L 144.400456 -40.41636 
L 142.363912 -38.207601 
L 140.327367 -36.229995 
L 138.290823 -34.269036 
L 136.254279 -32.33944 
L 134.217735 -30.462292 
L 132.181191 -28.733936 
L 130.144647 -27.240729 
L 128.108102 -25.945022 
L 126.071558 -24.766789 
L 124.035014 -23.704113 
L 121.99847 -22.809738 
L 119.961926 -22.01173 
L 117.925382 -21.245592 
L 115.888837 -20.587591 
L 113.852293 -20.068348 
L 111.815749 -19.609512 
L 109.779205 -19.151144 
L 107.742661 -18.718602 
L 105.706117 -18.346844 
L 103.669572 -18.034953 
L 101.633028 -17.770657 
L 99.596484 -17.540259 
L 97.55994 -17.32653 
L 95.523396 -17.122721 
L 93.486851 -16.948652 
L 91.450307 -16.816113 
L 89.413763 -16.714046 
L 87.377219 -16.636587 
L 85.340675 -16.581646 
L 83.304131 -16.535356 
L 81.267586 -16.489109 
L 79.231042 -16.447328 
L 77.194498 -16.404646 
L 75.157954 -16.360956 
L 73.12141 -16.326162 
L 71.084866 -16.30608 
L 69.048321 -16.294477 
L 67.011777 -16.278716 
L 64.975233 -16.259668 
L 62.938689 -16.248291 
L 60.902145 -16.246695 
L 58.8656 -16.245299 
L 56.829056 -16.23792 
L 54.792512 -16.229076 
L 52.755968 -16.222874 
L 50.719424 -16.220858 
L 48.68288 -16.226444 
L 46.646335 -16.234994 
L 44.609791 -16.233481 
L 42.573247 -16.220159 
L 40.536703 -16.207269 
L 38.500159 -16.201533 
L 36.463615 -16.200187 
z
" style="stroke: #666666; stroke-width: 2"/>
    </defs>
    <g clip-path="url(#p9e0af6e849)">
     <use xlink:href="#mf2af614a06" x="0" y="353.99952" style="fill: #666666; fill-opacity: 0.25; stroke: #666666; stroke-width: 2"/>
    </g>
   </g>
   <g id="matplotlib.axis_1"/>
   <g id="matplotlib.axis_2">
    <g id="ytick_1">
     <g id="line2d_1">
      <defs>
       <path id="m1555a5ba0e" d="M 0 0 
L -9 0 
" style="stroke: #666666; stroke-opacity: 0.015686; stroke-width: 1.875"/>
      </defs>
      <g>
       <use xlink:href="#m1555a5ba0e" x="16.2" y="337.79952" style="fill: #999999; fill-opacity: 0.015686; stroke: #666666; stroke-opacity: 0.015686; stroke-width: 1.875"/>
      </g>
     </g>
    </g>
    <g id="ytick_2">
     <g id="line2d_2">
      <g>
       <use xlink:href="#m1555a5ba0e" x="16.2" y="298.555044" style="fill: #999999; fill-opacity: 0.015686; stroke: #666666; stroke-opacity: 0.015686; stroke-width: 1.875"/>
      </g>
     </g>
    </g>
    <g id="ytick_3">
     <g id="line2d_3">
      <g>
       <use xlink:href="#m1555a5ba0e" x="16.2" y="259.310569" style="fill: #999999; fill-opacity: 0.015686; stroke: #666666; stroke-opacity: 0.015686; stroke-width: 1.875"/>
      </g>
     </g>
    </g>
    <g id="ytick_4">
     <g id="line2d_4">
      <g>
       <use xlink:href="#m1555a5ba0e" x="16.2" y="220.066093" style="fill: #999999; fill-opacity: 0.015686; stroke: #666666; stroke-opacity: 0.015686; stroke-width: 1.875"/>
      </g>
     </g>
    </g>
    <g id="ytick_5">
     <g id="line2d_5">
      <g>
       <use xlink:href="#m1555a5ba0e" x="16.2" y="180.821618" style="fill: #999999; fill-opacity: 0.015686; stroke: #666666; stroke-opacity: 0.015686; stroke-width: 1.875"/>
      </g>
     </g>
    </g>
    <g id="ytick_6">
     <g id="line2d_6">
      <g>
       <use xlink:href="#m1555a5ba0e" x="16.2" y="141.577142" style="fill: #999999; fill-opacity: 0.015686; stroke: #666666; stroke-opacity: 0.015686; stroke-width: 1.875"/>
      </g>
     </g>
    </g>
    <g id="ytick_7">
     <g id="line2d_7">
      <g>
       <use xlink:href="#m1555a5ba0e" x="16.2" y="102.332667" style="fill: #999999; fill-opacity: 0.015686; stroke: #666666; stroke-opacity: 0.015686; stroke-width: 1.875"/>
      </g>
     </g>
    </g>
    <g id="ytick_8">
     <g id="line2d_8">
      <g>
       <use xlink:href="#m1555a5ba0e" x="16.2" y="63.088191" style="fill: #999999; fill-opacity: 0.015686; stroke: #666666; stroke-opacity: 0.015686; stroke-width: 1.875"/>
      </g>
     </g>
    </g>
    <g id="ytick_9">
     <g id="line2d_9">
      <g>
       <use xlink:href="#m1555a5ba0e" x="16.2" y="23.843716" style="fill: #999999; fill-opacity: 0.015686; stroke: #666666; stroke-opacity: 0.015686; stroke-width: 1.875"/>
      </g>
     </g>
    </g>
   </g>
   <g id="patch_3">
    <path d="M 16.2 337.79952 
L 16.2 7.2 
" style="fill: none"/>
   </g>
   <g id="patch_4">
    <path d="M 461.99952 337.79952 
L 461.99952 7.2 
" style="fill: none"/>
   </g>
   <g id="patch_5">
    <path d="M 16.2 337.79952 
L 461.99952 337.79952 
" style="fill: none"/>
   </g>
   <g id="patch_6">
    <path d="M 16.2 7.2 
L 461.99952 7.2 
" style="fill: none"/>
   </g>
  </g>
 </g>
 <defs>
  <clipPath id="p9e0af6e849">
   <rect x="16.2" y="7.2" width="445.79952" height="330.59952"/>
  </clipPath>
 </defs>
</svg>
